<svg width="17" height="24" viewBox="0 0 17 24" fill="none" xmlns="http://www.w3.org/2000/svg">
<path d="M11.2133 2.77881C11.8279 2.47327 12.5503 2.38237 13.2653 2.57395C14.8212 2.99086 15.7446 4.59018 15.3277 6.14612L12.9552 15.0004C12.5382 16.5564 10.9389 17.4798 9.38299 17.0628C7.82705 16.6459 6.90368 15.0466 7.32059 13.4907L8.2696 9.94894C8.3768 9.54884 8.13937 9.13758 7.73927 9.03038C7.33917 8.92317 6.92792 9.16061 6.82071 9.56071L5.87171 13.1024C5.24038 15.4586 6.63862 17.8804 8.99476 18.5117C11.3509 19.1431 13.7727 17.7448 14.404 15.3887L16.7766 6.53435C17.4079 4.17821 16.0096 1.75639 13.6535 1.12506C12.572 0.835285 11.475 0.973621 10.5456 1.43562C9.97571 1.7189 9.46769 2.12434 9.06316 2.62867C8.80399 2.95178 8.85583 3.42382 9.17894 3.68299C9.50205 3.94217 9.97409 3.89033 10.2333 3.56722C10.4998 3.23488 10.8356 2.96655 11.2133 2.77881Z" fill="#2D264B"/>
<path d="M4.72787 8.99993C5.14478 7.44399 6.7441 6.52062 8.30004 6.93754C9.85598 7.35445 10.7793 8.95377 10.3624 10.5097L9.41343 14.0514C9.30623 14.4515 9.54366 14.8628 9.94376 14.97C10.3439 15.0772 10.7551 14.8398 10.8623 14.4397L11.8113 10.8979C12.4427 8.5418 11.0444 6.11998 8.68827 5.48865C6.33213 4.85732 3.91031 6.25556 3.27898 8.6117L0.906473 17.466C0.275147 19.8222 1.67339 22.244 4.02953 22.8753C5.11098 23.1651 6.20807 23.0268 7.13744 22.5648C7.70732 22.2815 8.21534 21.876 8.61987 21.3717C8.87904 21.0486 8.82721 20.5766 8.50409 20.3174C8.18098 20.0582 7.70894 20.11 7.44977 20.4332C7.1832 20.7655 6.84741 21.0338 6.46974 21.2216C5.8551 21.5271 5.13275 21.618 4.41776 21.4264C2.86181 21.0095 1.93845 19.4102 2.35536 17.8543L4.72787 8.99993Z" fill="#2D264B"/>
</svg>
