<svg width="24" height="25" viewBox="0 0 24 25" fill="none" xmlns="http://www.w3.org/2000/svg">
<path d="M6.96562 5.42998C4.20468 6.64873 1.93593 7.67998 1.9125 7.70811C1.84218 7.82529 1.875 8.02217 1.97812 8.09248C2.07187 8.15811 3.09843 8.16748 12 8.16748C20.9016 8.16748 21.9281 8.15811 22.0219 8.09248C22.125 8.02217 22.1578 7.82529 22.0875 7.70811C22.0547 7.66123 12.0422 3.18936 11.9906 3.20342C11.9812 3.20342 9.72187 4.20654 6.96562 5.42998ZM12.1406 4.32373C12.2344 4.41748 12.2391 4.46436 12.225 5.94561C12.2109 7.54873 12.2109 7.55811 12 7.55811C11.7891 7.55811 11.7891 7.54873 11.775 5.94561C11.7609 4.46436 11.7656 4.41748 11.8594 4.32373C11.9109 4.27217 11.9766 4.22998 12 4.22998C12.0281 4.22998 12.0891 4.27217 12.1406 4.32373ZM10.8656 4.84873C10.9078 4.89092 10.9219 5.19561 10.9219 5.92686V6.94873L10.8047 7.00498C10.7062 7.04717 10.6734 7.04248 10.5937 6.97217C10.5047 6.89248 10.5 6.82686 10.5 5.93154C10.5 5.35967 10.5187 4.93779 10.5469 4.88154C10.6031 4.78311 10.7812 4.76436 10.8656 4.84873ZM13.4531 4.88154C13.4812 4.93779 13.5 5.35967 13.5 5.93154C13.5 6.82686 13.4953 6.89248 13.4062 6.97217C13.3266 7.04248 13.2937 7.04717 13.1953 7.00498L13.0781 6.94873V5.92686C13.0781 5.19561 13.0922 4.89092 13.1344 4.84873C13.2187 4.76436 13.3969 4.78311 13.4531 4.88154Z" fill="url(#paint0_linear_99_1492)"/>
<path d="M3.05624 9.03936C3.08437 9.54092 3.14999 9.67686 3.42656 9.81748C3.56718 9.89248 3.74999 9.90186 5.06249 9.90186C6.37499 9.90186 6.55781 9.89248 6.69843 9.81748C6.97968 9.67686 7.04999 9.53623 7.06874 9.03467L7.08749 8.58936H5.06249H3.03281L3.05624 9.03936Z" fill="url(#paint1_linear_99_1492)"/>
<path d="M16.9312 9.03467C16.95 9.53623 17.0203 9.67686 17.3015 9.81748C17.4422 9.89248 17.625 9.90186 18.9375 9.90186C20.25 9.90186 20.4328 9.89248 20.5734 9.81748C20.85 9.67686 20.9156 9.54092 20.9437 9.03936L20.9672 8.58936H18.9375H16.9125L16.9312 9.03467Z" fill="url(#paint2_linear_99_1492)"/>
<path opacity="0.5" d="M11.4891 9.80791C10.5 9.94385 9.55781 10.4735 8.96719 11.2188C8.64844 11.6267 8.47031 11.9501 8.2875 12.4798C8.14219 12.9063 8.1375 12.9532 8.13281 13.6517C8.13281 14.5001 8.18906 14.7626 8.5125 15.4095C8.91094 16.2157 9.47812 16.7735 10.2891 17.1673C10.9219 17.472 11.3203 17.561 12.0234 17.561C12.7172 17.561 13.0734 17.4767 13.7109 17.1673C14.7 16.6892 15.3609 15.9298 15.7172 14.8563C15.8531 14.4485 15.8625 14.3876 15.8625 13.6751C15.8625 12.9532 15.8578 12.9063 15.7125 12.4798C15.3656 11.4485 14.6953 10.6657 13.7578 10.2017C13.05 9.85478 12.2109 9.70947 11.4891 9.80791ZM12.0984 11.5376C12.2625 11.7017 12.2672 11.7813 12.1266 11.9454C11.9953 12.0954 11.7984 12.1095 11.6625 11.9735C11.5266 11.8376 11.5406 11.6407 11.6906 11.5095C11.8547 11.3688 11.9344 11.3735 12.0984 11.5376ZM12.1594 12.4423C12.225 12.5313 12.2344 12.761 12.2344 14.0079V15.4704L12.5672 15.4892C12.825 15.5032 12.9141 15.5267 12.9656 15.597C13.05 15.7142 13.05 15.7423 12.9375 15.8548C12.8484 15.9438 12.7828 15.9485 12 15.9485C11.2172 15.9485 11.1516 15.9438 11.0625 15.8548C10.95 15.7423 10.95 15.7142 11.0344 15.597C11.0859 15.5267 11.175 15.5032 11.4328 15.4892L11.7656 15.4704V14.1157V12.761H11.4141C11.0812 12.761 11.0578 12.7517 11.0062 12.6438C10.9641 12.5454 10.9687 12.5126 11.0391 12.4329C11.1141 12.3485 11.1844 12.3392 11.6062 12.3392C12.0516 12.3392 12.0937 12.3485 12.1594 12.4423Z" fill="#858585"/>
<path d="M4.26562 13.6753V17.0269H5.0625H5.85938V13.6753V10.3237H5.0625H4.26562V13.6753Z" fill="url(#paint3_linear_99_1492)"/>
<path d="M18.1406 13.6753V17.0269H18.9375H19.7344V13.6753V10.3237H18.9375H18.1406V13.6753Z" fill="url(#paint4_linear_99_1492)"/>
<path d="M3.42656 17.5331C3.14999 17.6737 3.08437 17.8097 3.05624 18.3112L3.03281 18.7612H5.06249H7.08749L7.06874 18.3159C7.04999 17.8144 6.97968 17.6737 6.69843 17.5331C6.55781 17.4581 6.37499 17.4487 5.06249 17.4487C3.74999 17.4487 3.56718 17.4581 3.42656 17.5331Z" fill="url(#paint5_linear_99_1492)"/>
<path d="M17.3015 17.5331C17.0203 17.6737 16.95 17.8144 16.9312 18.3159L16.9125 18.7612H18.9375H20.9672L20.9437 18.3112C20.9156 17.8097 20.85 17.6737 20.5734 17.5331C20.4328 17.4581 20.25 17.4487 18.9375 17.4487C17.625 17.4487 17.4422 17.4581 17.3015 17.5331Z" fill="url(#paint6_linear_99_1492)"/>
<path d="M2.45156 19.2534C2.11406 19.3987 2.0625 19.844 2.3625 20.0831C2.45625 20.1628 3.03281 20.1675 12 20.1675C20.9672 20.1675 21.5437 20.1628 21.6375 20.0831C21.9422 19.8394 21.8859 19.394 21.5391 19.2487C21.3 19.1503 2.68125 19.155 2.45156 19.2534Z" fill="url(#paint7_linear_99_1492)"/>
<path d="M1.80937 20.7581C1.63124 20.9409 1.63593 21.2503 1.82343 21.4378L1.95937 21.5737H12H22.0406L22.1766 21.4378C22.3641 21.2503 22.3687 20.9409 22.1906 20.7581L22.0641 20.6362H12H1.93593L1.80937 20.7581Z" fill="url(#paint8_linear_99_1492)"/>
<defs>
<linearGradient id="paint0_linear_99_1492" x1="-2.04985" y1="7.07992" x2="2.20119" y2="-4.2633" gradientUnits="userSpaceOnUse">
<stop stop-color="#04CFA4"/>
<stop offset="1" stop-color="#04CFA4"/>
</linearGradient>
<linearGradient id="paint1_linear_99_1492" x1="2.24689" y1="9.61431" x2="3.60653" y2="6.86678" gradientUnits="userSpaceOnUse">
<stop stop-color="#04CFA4"/>
<stop offset="1" stop-color="#04CFA4"/>
</linearGradient>
<linearGradient id="paint2_linear_99_1492" x1="16.1266" y1="9.61431" x2="17.4862" y2="6.86678" gradientUnits="userSpaceOnUse">
<stop stop-color="#04CFA4"/>
<stop offset="1" stop-color="#04CFA4"/>
</linearGradient>
<linearGradient id="paint3_linear_99_1492" x1="3.95671" y1="15.5583" x2="6.60933" y2="15.1458" gradientUnits="userSpaceOnUse">
<stop stop-color="#04CFA4"/>
<stop offset="1" stop-color="#04CFA4"/>
</linearGradient>
<linearGradient id="paint4_linear_99_1492" x1="17.8317" y1="15.5583" x2="20.4843" y2="15.1458" gradientUnits="userSpaceOnUse">
<stop stop-color="#04CFA4"/>
<stop offset="1" stop-color="#04CFA4"/>
</linearGradient>
<linearGradient id="paint5_linear_99_1492" x1="2.24689" y1="18.4737" x2="3.60653" y2="15.7262" gradientUnits="userSpaceOnUse">
<stop stop-color="#04CFA4"/>
<stop offset="1" stop-color="#04CFA4"/>
</linearGradient>
<linearGradient id="paint6_linear_99_1492" x1="16.1266" y1="18.4737" x2="17.4862" y2="15.7262" gradientUnits="userSpaceOnUse">
<stop stop-color="#04CFA4"/>
<stop offset="1" stop-color="#04CFA4"/>
</linearGradient>
<linearGradient id="paint7_linear_99_1492" x1="-1.64772" y1="19.9505" x2="-1.45028" y2="17.3851" gradientUnits="userSpaceOnUse">
<stop stop-color="#04CFA4"/>
<stop offset="1" stop-color="#04CFA4"/>
</linearGradient>
<linearGradient id="paint8_linear_99_1492" x1="-2.32172" y1="21.3683" x2="-2.1529" y2="18.9369" gradientUnits="userSpaceOnUse">
<stop stop-color="#04CFA4"/>
<stop offset="1" stop-color="#04CFA4"/>
</linearGradient>
</defs>
</svg>
