<svg width="25" height="25" viewBox="0 0 25 25" fill="none" xmlns="http://www.w3.org/2000/svg">
<path d="M20.6973 8.9168C19.6473 4.2968 15.6173 2.2168 12.0773 2.2168C12.0773 2.2168 12.0773 2.2168 12.0673 2.2168C8.53727 2.2168 4.49727 4.2868 3.44727 8.9068C2.27727 14.0668 5.43727 18.4368 8.29727 21.1868C9.35727 22.2068 10.7173 22.7168 12.0773 22.7168C13.4373 22.7168 14.7973 22.2068 15.8473 21.1868C18.7073 18.4368 21.8673 14.0768 20.6973 8.9168ZM12.0773 13.9268C10.3373 13.9268 8.92727 12.5168 8.92727 10.7768C8.92727 9.0368 10.3373 7.6268 12.0773 7.6268C13.8173 7.6268 15.2273 9.0368 15.2273 10.7768C15.2273 12.5168 13.8173 13.9268 12.0773 13.9268Z" fill="#292D32"/>
</svg>
