<svg width="40" height="40" viewBox="0 0 40 40" fill="none" xmlns="http://www.w3.org/2000/svg">
<circle cx="20" cy="20" r="20" fill="url(#paint0_linear_55_195)"/>
<path d="M26 14C25.39 14 24.83 13.65 24.55 13.11L23.83 11.66C23.37 10.75 22.17 10 21.15 10H18.86C17.83 10 16.63 10.75 16.17 11.66L15.45 13.11C15.17 13.65 14.61 14 14 14C11.83 14 10.11 15.83 10.25 17.99L10.77 26.25C10.89 28.31 12 30 14.76 30H25.24C28 30 29.1 28.31 29.23 26.25L29.75 17.99C29.89 15.83 28.17 14 26 14ZM18.5 15.25H21.5C21.91 15.25 22.25 15.59 22.25 16C22.25 16.41 21.91 16.75 21.5 16.75H18.5C18.09 16.75 17.75 16.41 17.75 16C17.75 15.59 18.09 15.25 18.5 15.25ZM20 26.12C18.14 26.12 16.62 24.61 16.62 22.74C16.62 20.87 18.13 19.36 20 19.36C21.87 19.36 23.38 20.87 23.38 22.74C23.38 24.61 21.86 26.12 20 26.12Z" fill="white"/>
<defs>
<linearGradient id="paint0_linear_55_195" x1="-7.75312" y1="8.76339" x2="40" y2="40" gradientUnits="userSpaceOnUse">
<stop stop-color="#04CFA4"/>
<stop offset="1" stop-color="#04CFA4"/>
</linearGradient>
</defs>
</svg>
