<svg width="88" height="45" viewBox="0 0 88 45" fill="none" xmlns="http://www.w3.org/2000/svg">
<rect x="0.0772705" y="0.107666" width="87" height="44" rx="22" fill="url(#paint0_linear_58_1985)"/>
<path d="M9.56727 21.7077C9.56727 20.7463 9.78194 19.8877 10.2113 19.1317C10.6499 18.3663 11.2426 17.7737 11.9893 17.3537C12.7453 16.9243 13.5899 16.7097 14.5233 16.7097C15.6153 16.7097 16.5719 16.9897 17.3933 17.5497C18.2146 18.1097 18.7886 18.8843 19.1153 19.8737H16.8613C16.6373 19.407 16.3199 19.057 15.9093 18.8237C15.5079 18.5903 15.0413 18.4737 14.5093 18.4737C13.9399 18.4737 13.4313 18.609 12.9833 18.8797C12.5446 19.141 12.1993 19.5143 11.9473 19.9997C11.7046 20.485 11.5833 21.0543 11.5833 21.7077C11.5833 22.3517 11.7046 22.921 11.9473 23.4157C12.1993 23.901 12.5446 24.279 12.9833 24.5497C13.4313 24.811 13.9399 24.9417 14.5093 24.9417C15.0413 24.9417 15.5079 24.825 15.9093 24.5917C16.3199 24.349 16.6373 23.9943 16.8613 23.5277H19.1153C18.7886 24.5263 18.2146 25.3057 17.3933 25.8657C16.5813 26.4163 15.6246 26.6917 14.5233 26.6917C13.5899 26.6917 12.7453 26.4817 11.9893 26.0617C11.2426 25.6323 10.6499 25.0397 10.2113 24.2837C9.78194 23.5277 9.56727 22.669 9.56727 21.7077ZM25.1574 18.7397C25.7454 18.7397 26.268 18.8703 26.7254 19.1317C27.1827 19.3837 27.5374 19.7617 27.7894 20.2657C28.0507 20.7603 28.1814 21.3577 28.1814 22.0577V26.6077H26.2214V22.3237C26.2214 21.7077 26.0674 21.2363 25.7594 20.9097C25.4514 20.5737 25.0314 20.4057 24.4994 20.4057C23.958 20.4057 23.5287 20.5737 23.2114 20.9097C22.9034 21.2363 22.7494 21.7077 22.7494 22.3237V26.6077H20.7894V16.2477H22.7494V19.8177C23.0014 19.4817 23.3374 19.2203 23.7574 19.0337C24.1774 18.8377 24.644 18.7397 25.1574 18.7397ZM29.5412 22.7017C29.5412 21.9177 29.6952 21.2223 30.0032 20.6157C30.3206 20.009 30.7452 19.5423 31.2772 19.2157C31.8186 18.889 32.4206 18.7257 33.0832 18.7257C33.6619 18.7257 34.1659 18.8423 34.5952 19.0757C35.0339 19.309 35.3839 19.603 35.6452 19.9577V18.8517H37.6192V26.6077H35.6452V25.4737C35.3932 25.8377 35.0432 26.141 34.5952 26.3837C34.1566 26.617 33.6479 26.7337 33.0692 26.7337C32.4159 26.7337 31.8186 26.5657 31.2772 26.2297C30.7452 25.8937 30.3206 25.4223 30.0032 24.8157C29.6952 24.1997 29.5412 23.495 29.5412 22.7017ZM35.6452 22.7297C35.6452 22.2537 35.5519 21.8477 35.3652 21.5117C35.1786 21.1663 34.9266 20.905 34.6092 20.7277C34.2919 20.541 33.9512 20.4477 33.5872 20.4477C33.2232 20.4477 32.8872 20.5363 32.5792 20.7137C32.2712 20.891 32.0192 21.1523 31.8232 21.4977C31.6366 21.8337 31.5432 22.235 31.5432 22.7017C31.5432 23.1683 31.6366 23.579 31.8232 23.9337C32.0192 24.279 32.2712 24.545 32.5792 24.7317C32.8966 24.9183 33.2326 25.0117 33.5872 25.0117C33.9512 25.0117 34.2919 24.923 34.6092 24.7457C34.9266 24.559 35.1786 24.2977 35.3652 23.9617C35.5519 23.6163 35.6452 23.2057 35.6452 22.7297ZM41.8155 20.4617V24.2137C41.8155 24.475 41.8762 24.6663 41.9975 24.7877C42.1282 24.8997 42.3428 24.9557 42.6415 24.9557H43.5515V26.6077H42.3195C40.6675 26.6077 39.8415 25.805 39.8415 24.1997V20.4617H38.9175V18.8517H39.8415V16.9337H41.8155V18.8517H43.5515V20.4617H41.8155Z" fill="white"/>
<circle cx="66.0773" cy="22.1077" r="12" fill="white"/>
<g clip-path="url(#clip0_58_1985)">
<path d="M65.4796 16.8389C63.9867 16.9561 62.6296 17.5444 61.6382 18.4983C60.7851 19.3186 60.2718 20.2842 60.1101 21.3717C60.0562 21.728 60.0749 22.4686 60.1452 22.7921C60.3374 23.678 60.8273 24.5053 61.5257 25.1194C61.6499 25.2296 61.8398 25.3819 61.9476 25.4546L62.1398 25.5881L62.1257 25.6936C62.1046 25.8577 61.9921 26.1671 61.8796 26.3663C61.7976 26.5092 61.6898 26.6381 61.371 26.9616C61.1507 27.1866 60.9679 27.3811 60.9679 27.3928C60.9679 27.4022 61.2562 27.4046 61.6077 27.3975C62.1304 27.3881 62.2827 27.3764 62.4562 27.3389C63.0304 27.21 63.5062 26.9663 63.9562 26.5725L64.0968 26.4483L64.3429 26.5046C65.5757 26.7835 67.0288 26.753 68.2359 26.4202C70.2257 25.8717 71.6085 24.4889 71.9976 22.6631C72.0796 22.2741 72.1031 21.5311 72.0445 21.1233C71.8007 19.4405 70.7085 18.0788 69.0327 17.3616C68.0413 16.9397 66.696 16.7405 65.4796 16.8389Z" fill="url(#paint1_linear_58_1985)"/>
</g>
<defs>
<linearGradient id="paint0_linear_58_1985" x1="-16.7858" y1="9.74739" x2="38.6996" y2="81.5115" gradientUnits="userSpaceOnUse">
<stop stop-color="#04CFA4"/>
<stop offset="1" stop-color="#04CFA4"/>
</linearGradient>
<linearGradient id="paint1_linear_58_1985" x1="57.7534" y1="25.0821" x2="70.9528" y2="15.2976" gradientUnits="userSpaceOnUse">
<stop stop-color="#04CFA4"/>
<stop offset="1" stop-color="#04CFA4"/>
</linearGradient>
<clipPath id="clip0_58_1985">
<rect width="12" height="12" fill="white" transform="translate(60.0773 16.1077)"/>
</clipPath>
</defs>
</svg>
