<svg width="25" height="24" viewBox="0 0 25 24" fill="none" xmlns="http://www.w3.org/2000/svg">
<path d="M20.2002 6.75C21.719 6.75 22.9502 5.51878 22.9502 4C22.9502 2.48122 21.719 1.25 20.2002 1.25C18.6814 1.25 17.4502 2.48122 17.4502 4C17.4502 5.51878 18.6814 6.75 20.2002 6.75Z" fill="url(#paint0_linear_79_1190)"/>
<path d="M19.2402 8.15C17.6702 7.81 16.3902 6.53 16.0502 4.96C15.9202 4.35 15.9102 3.76 16.0202 3.2C16.1502 2.58 15.6902 2 15.0502 2H7.2002C4.4402 2 2.2002 4.24 2.2002 7V13.95C2.2002 16.71 4.4402 18.95 7.2002 18.95H8.7002C8.9802 18.95 9.3402 19.13 9.5002 19.35L11.0002 21.34C11.6602 22.22 12.7402 22.22 13.4002 21.34L14.9002 19.35C15.0902 19.1 15.3802 18.95 15.7002 18.95H17.2102C19.9702 18.95 22.2002 16.72 22.2002 13.96V9.15C22.2002 8.52 21.6202 8.06 21.0002 8.18C20.4402 8.28 19.8502 8.28 19.2402 8.15ZM8.2002 12C7.6402 12 7.2002 11.55 7.2002 11C7.2002 10.45 7.6402 10 8.2002 10C8.7502 10 9.2002 10.45 9.2002 11C9.2002 11.55 8.7602 12 8.2002 12ZM12.2002 12C11.6402 12 11.2002 11.55 11.2002 11C11.2002 10.45 11.6402 10 12.2002 10C12.7502 10 13.2002 10.45 13.2002 11C13.2002 11.55 12.7602 12 12.2002 12ZM16.2002 12C15.6402 12 15.2002 11.55 15.2002 11C15.2002 10.45 15.6402 10 16.2002 10C16.7502 10 17.2002 10.45 17.2002 11C17.2002 11.55 16.7602 12 16.2002 12Z" fill="url(#paint1_linear_79_1190)"/>
<defs>
<linearGradient id="paint0_linear_79_1190" x1="16.3841" y1="2.45497" x2="22.9502" y2="6.75" gradientUnits="userSpaceOnUse">
<stop stop-color="#04CFA4"/>
<stop offset="1" stop-color="#04CFA4"/>
</linearGradient>
<linearGradient id="paint1_linear_79_1190" x1="-1.67636" y1="6.38169" x2="22.2002" y2="22" gradientUnits="userSpaceOnUse">
<stop stop-color="#04CFA4"/>
<stop offset="1" stop-color="#04CFA4"/>
</linearGradient>
</defs>
</svg>
