<svg width="25" height="24" viewBox="0 0 25 24" fill="none" xmlns="http://www.w3.org/2000/svg">
<path d="M11.5126 2H9.51257C4.51257 2 2.51257 4 2.51257 9V15C2.51257 20 4.51257 22 9.51257 22H15.5126C20.5126 22 22.5126 20 22.5126 15V13" stroke="#292D32" stroke-width="1.5" stroke-linecap="round" stroke-linejoin="round"/>
<path d="M16.5526 3.01976L8.67257 10.8998C8.37257 11.1998 8.07257 11.7898 8.01257 12.2198L7.58257 15.2298C7.42257 16.3198 8.19257 17.0798 9.28257 16.9298L12.2926 16.4998C12.7126 16.4398 13.3026 16.1398 13.6126 15.8398L21.4926 7.95976C22.8526 6.59976 23.4926 5.01976 21.4926 3.01976C19.4926 1.01976 17.9126 1.65976 16.5526 3.01976Z" stroke="#292D32" stroke-width="1.5" stroke-miterlimit="10" stroke-linecap="round" stroke-linejoin="round"/>
<path d="M15.4226 4.1499C16.0926 6.5399 17.9626 8.4099 20.3626 9.0899" stroke="#292D32" stroke-width="1.5" stroke-miterlimit="10" stroke-linecap="round" stroke-linejoin="round"/>
</svg>
