<svg width="39" height="39" viewBox="0 0 39 39" fill="none" xmlns="http://www.w3.org/2000/svg">
<g clip-path="url(#clip0_57_237)">
<path d="M4.44505 6.31874C3.99973 6.45976 3.65091 6.74921 3.40598 7.19452L3.19075 7.58788L3.16848 12.3527L3.14622 17.125H2.19622C1.32786 17.125 1.22395 17.1398 0.993875 17.2957C0.860281 17.3848 0.704422 17.548 0.652469 17.6445C0.57825 17.793 0.555984 19.4109 0.555984 24.9996C0.555984 32.1617 0.555984 32.1691 0.711844 32.3695C1.04583 32.7926 0.964188 32.7851 5.02395 32.7851C8.43059 32.7851 8.77942 32.7703 9.01692 32.6516C9.52161 32.4066 9.53645 32.3027 9.53645 29.6086V27.2187H12.4681H15.3997V28.1391V29.0668L13.7818 29.0891L12.1638 29.1113L11.674 29.3562C10.7091 29.8312 10.1673 30.6625 10.0783 31.8277C10.0337 32.3695 10.0411 32.4066 10.2267 32.5922L10.4197 32.7851H23.8681H37.3091L37.5986 32.6219C38.1478 32.3176 38.1107 32.993 38.1107 23.0625C38.1107 13.2211 38.1404 13.8668 37.6431 13.5625C37.4204 13.4215 37.2572 13.4141 35.1642 13.4141H32.9228L32.9005 10.4973C32.8783 7.23163 32.8857 7.29843 32.3068 6.71952C31.765 6.17772 32.7818 6.21483 18.0048 6.22226C7.38411 6.22226 4.68997 6.24452 4.44505 6.31874ZM31.52 7.54335L31.765 7.75858L31.7872 10.5863L31.8095 13.4141H27.9056C23.6009 13.4141 23.7048 13.4066 23.4154 13.8816C23.2743 14.1117 23.2669 14.2824 23.2669 17.9191V21.7266H16.4017H9.53645V19.8117C9.53645 16.9617 9.722 17.125 6.50833 17.125H4.26692L4.28177 12.4418L4.30403 7.75858L4.54895 7.54335L4.78645 7.32812H18.0345H31.2825L31.52 7.54335ZM36.9974 23.0996V31.6719H30.6888H24.3802V23.0996V14.5273H30.6888H36.9974V23.0996ZM8.42317 18.7578V19.2773H5.04622H1.66927V18.7578V18.2383H5.04622H8.42317V18.7578ZM8.42317 24.9551V29.5195H5.04622H1.66927V24.9551V20.3906H5.04622H8.42317V24.9551ZM23.2669 24.4355V26.1055H16.4017H9.53645V24.4355V22.7656H16.4017H23.2669V24.4355ZM19.6302 28.1465V29.0742H18.0716H16.513V28.1465V27.2187H18.0716H19.6302V28.1465ZM23.2669 28.1465V29.0742H21.9681H20.6693V28.1465V27.2187H21.9681H23.2669V28.1465ZM23.1482 30.1578C23.2447 30.1949 23.2669 30.3359 23.2669 30.9371V31.6719H17.2255H11.1767L11.288 31.3527C11.4958 30.7367 11.9931 30.3137 12.6536 30.1801C12.9728 30.1207 22.9849 30.0984 23.1482 30.1578ZM8.42317 31.1523V31.6719H5.04622H1.66927V31.1523V30.6328H5.04622H8.42317V31.1523Z" fill="url(#paint0_linear_57_237)"/>
<path d="M25.1224 15.2695C24.974 15.418 24.974 15.5145 24.974 22.5801C24.974 29.6457 24.974 29.7422 25.1224 29.8906C25.2708 30.0391 25.3673 30.0391 30.6888 30.0391C36.0103 30.0391 36.1068 30.0391 36.2552 29.8906C36.4036 29.7422 36.4036 29.6457 36.4036 22.5801C36.4036 15.5145 36.4036 15.418 36.2552 15.2695C36.1068 15.1211 36.0103 15.1211 30.6888 15.1211C25.3673 15.1211 25.2708 15.1211 25.1224 15.2695ZM35.2904 22.5801V28.9258H30.6888H26.0872V22.5801V16.2344H30.6888H35.2904V22.5801Z" fill="#949494"/>
<path d="M30.3177 30.4844C30.2361 30.5661 30.1693 30.7293 30.1693 30.8555C30.1693 30.9817 30.2361 31.145 30.3177 31.2266C30.6368 31.5457 31.2083 31.3082 31.2083 30.8704C31.2083 30.425 30.6294 30.1727 30.3177 30.4844Z" fill="#949494"/>
<path d="M17.5595 23.9828C17.0622 24.5098 17.6411 25.3262 18.3165 25.0368C18.9771 24.7621 18.7544 23.8047 18.0345 23.8047C17.8044 23.8047 17.6857 23.8493 17.5595 23.9828Z" fill="#949494"/>
</g>
<defs>
<linearGradient id="paint0_linear_57_237" x1="-6.72327" y1="26.9649" x2="27.7866" y2="-4.94644" gradientUnits="userSpaceOnUse">
<stop stop-color="#04CFA4"/>
<stop offset="1" stop-color="#04CFA4"/>
</linearGradient>
<clipPath id="clip0_57_237">
<rect width="38" height="38" fill="white" transform="translate(0.333328 0.5)"/>
</clipPath>
</defs>
</svg>
