<svg width="39" height="39" viewBox="0 0 39 39" fill="none" xmlns="http://www.w3.org/2000/svg">
<g clip-path="url(#clip0_57_228)">
<path d="M13.1395 7.40967C12.798 7.43936 12.2488 7.521 11.9148 7.58779C10.7496 7.82529 8.8793 8.55264 8.73086 8.81982C8.62696 9.01279 8.64922 9.3542 8.77539 9.53232C8.96836 9.80693 9.24297 9.80693 9.85157 9.53232C10.9277 9.04248 12.1227 8.7085 13.0875 8.61943L13.6145 8.5749L13.659 9.45068C13.7184 10.564 13.9113 11.3062 14.3492 12.1522C15.4996 14.3862 18.0824 15.6405 20.5613 15.1655C22.3203 14.8241 23.8195 13.7257 24.6434 12.1745C25.0887 11.3284 25.2816 10.5714 25.341 9.46553L25.3855 8.58975H25.6231C26.0832 8.58975 27.1891 8.81982 27.9535 9.07959C29.5715 9.61397 31.0262 10.5417 32.1914 11.7515C32.6738 12.2636 35.4793 15.8038 35.7688 16.2714C35.8059 16.3308 35.0414 16.9542 33.6758 18.0007C32.4957 18.9062 31.516 19.6483 31.5012 19.6483C31.4863 19.6483 31.2266 19.3218 30.9223 18.9284C30.618 18.5276 30.3137 18.1417 30.2469 18.0749C30.0539 17.8819 29.5789 17.8968 29.4008 18.0972C29.2672 18.2456 29.2598 18.4089 29.2598 21.4815V24.7101L29.4379 24.8511C29.6754 25.044 30.0465 25.0366 30.2469 24.8214C30.4027 24.6581 30.4102 24.5913 30.425 22.4761L30.4473 20.3015L31.3379 21.4519C31.8277 22.0901 32.3027 22.6468 32.3992 22.6839C32.6219 22.7878 33.1266 22.7878 33.327 22.6765C33.6387 22.5132 38.1883 18.9878 38.3441 18.7874C38.5223 18.5647 38.5594 18.0378 38.4109 17.7706C38.3664 17.6815 37.2457 16.1972 35.9246 14.4753C34.0246 12.0112 33.3566 11.1874 32.7184 10.5788C30.8035 8.72334 28.4805 7.66201 25.7715 7.40225C24.8883 7.32061 14.0227 7.32061 13.1395 7.40967ZM15.8633 9.01279C15.8633 10.2894 16.2344 11.2839 16.9617 11.9964C18.2086 13.2062 20.0789 13.3694 21.5633 12.3972C22.5727 11.7218 23.1367 10.5269 23.1367 9.01279V8.51553H23.6711H24.1981L24.1535 9.34678C24.0645 10.8386 23.6859 11.7515 22.7656 12.6792C20.925 14.5347 18.075 14.5347 16.2344 12.6792C15.3141 11.7515 14.9355 10.8386 14.8465 9.34678L14.802 8.51553H15.3289H15.8633V9.01279ZM21.9492 8.99795C21.9492 9.94795 21.7191 10.6011 21.1996 11.1206C20.257 12.0632 18.743 12.0632 17.793 11.1132C17.3105 10.6308 17.1176 10.1335 17.073 9.25029L17.0285 8.51553H19.4926H21.9492V8.99795ZM36.934 17.7855L37.2309 18.1788L37.0305 18.3421C36.4664 18.8022 33.0227 21.4222 32.9484 21.4444C32.9039 21.4593 32.7332 21.2812 32.5699 21.0585C32.2805 20.68 32.2656 20.6503 32.3918 20.5315C32.6887 20.2495 36.5258 17.3476 36.5777 17.3624C36.6148 17.3772 36.7707 17.5628 36.934 17.7855Z" fill="url(#paint0_linear_57_228)"/>
<path d="M6.84571 10.0742C6.45977 10.2374 5.18321 11.7292 3.09024 14.4531C1.85079 16.0636 0.767193 17.496 0.670708 17.6371C0.448052 17.971 0.433208 18.5054 0.655865 18.7875C0.804302 18.9804 5.36133 22.5132 5.67305 22.6765C5.87344 22.7878 6.37813 22.7878 6.60079 22.6839C6.69727 22.6468 7.17227 22.0902 7.66211 21.4519L8.55274 20.3015L8.58985 24.9996C8.61954 28.6363 8.64922 29.7421 8.72344 29.8683C8.85704 30.1058 9.23555 30.2839 10.1856 30.5511C12.7758 31.2785 15.7 31.6199 19.4629 31.6199C21.8898 31.6199 23.0551 31.5531 25.0367 31.3007C26.9367 31.0558 29.2227 30.5289 29.9055 30.18C30.3731 29.9425 30.4102 29.7867 30.4102 28.1539V26.7066L30.2172 26.5582C29.9945 26.38 29.8313 26.3652 29.5715 26.4839C29.2746 26.6175 29.2227 26.8476 29.2227 28.0648V29.2003L28.3543 29.4304C25.6231 30.1578 23.1367 30.4324 19.5 30.4324C15.8262 30.4324 13.132 30.1207 10.5195 29.3933L9.77735 29.1929L9.76251 23.723C9.74024 18.4609 9.73282 18.2457 9.59922 18.0972C9.4211 17.8968 8.9461 17.882 8.76055 18.075C8.68633 18.1417 8.38204 18.5277 8.07774 18.9285C7.77344 19.3218 7.51368 19.6484 7.49883 19.6484C7.47657 19.6484 6.54141 18.9359 5.41329 18.0675C4.28516 17.2066 3.32032 16.457 3.26836 16.4199C3.18672 16.3605 3.50586 15.9003 4.7379 14.3046C5.59883 13.1839 6.61563 11.9445 7.00157 11.5511C7.78829 10.7421 7.84766 10.5863 7.48399 10.2152C7.26133 9.99253 7.10547 9.96284 6.84571 10.0742ZM4.61915 18.9878C5.73985 19.8488 6.675 20.5835 6.69727 20.6132C6.7418 20.6875 6.14063 21.4742 6.05157 21.4445C5.98477 21.4296 2.50391 18.78 1.96954 18.3421L1.76915 18.1789L2.08086 17.7632C2.25157 17.5257 2.42969 17.3625 2.48165 17.3773C2.5336 17.3996 3.49102 18.1195 4.61915 18.9878Z" fill="url(#paint1_linear_57_228)"/>
<path d="M17.6816 18.1343C15.7594 18.4089 14.2379 18.8171 12.8055 19.4479C12.3231 19.6632 12.1524 19.9081 12.1524 20.3831C12.1524 20.7468 12.9465 22.6319 13.2137 22.8991C13.5328 23.2108 13.8742 23.196 14.8688 22.8175C17.9934 21.6374 21.1106 21.6448 24.2277 22.8546C25.1109 23.196 25.4746 23.2034 25.7863 22.8991C25.8828 22.8026 26.1574 22.2608 26.4024 21.7042C26.9145 20.539 26.9664 20.1308 26.677 19.7745C26.3652 19.3886 24.2055 18.639 22.4391 18.305C21.7637 18.1714 21.2813 18.1417 19.7598 18.1269C18.743 18.112 17.8078 18.1194 17.6816 18.1343ZM21.6152 19.396C22.5875 19.5296 24.1609 19.9229 24.9699 20.2495C25.2891 20.3757 25.5563 20.487 25.5711 20.5019C25.5859 20.5093 25.4672 20.8284 25.3113 21.1995C25.0961 21.7116 24.9996 21.8601 24.918 21.8229C23.8938 21.3851 22.3129 20.9769 21.0289 20.8284C20.0938 20.7171 17.9859 20.7839 17.1027 20.9472C16.3234 21.0882 14.8613 21.5038 14.3492 21.719C14.1488 21.8081 13.9781 21.8675 13.9707 21.8601C13.941 21.8081 13.4141 20.5464 13.4141 20.5167C13.4141 20.4647 14.7797 19.9749 15.3809 19.8042C17.4145 19.2401 19.4629 19.1065 21.6152 19.396Z" fill="#949494"/>
</g>
<defs>
<linearGradient id="paint0_linear_57_228" x1="2.88159" y1="21.1233" x2="25.7603" y2="-4.1799" gradientUnits="userSpaceOnUse">
<stop stop-color="#04CFA4"/>
<stop offset="1" stop-color="#04CFA4"/>
</linearGradient>
<linearGradient id="paint1_linear_57_228" x1="-5.30207" y1="26.8857" x2="22.7159" y2="1.5143" gradientUnits="userSpaceOnUse">
<stop stop-color="#04CFA4"/>
<stop offset="1" stop-color="#04CFA4"/>
</linearGradient>
<clipPath id="clip0_57_228">
<rect width="38" height="38" fill="white" transform="translate(0.5 0.5)"/>
</clipPath>
</defs>
</svg>
