<svg width="39" height="39" viewBox="0 0 39 39" fill="none" xmlns="http://www.w3.org/2000/svg">
<g clip-path="url(#clip0_57_255)">
<path d="M8.44883 7.03129C6.20742 7.58051 4.43359 9.54731 4.12187 11.8332L4.03281 12.4938L3.49844 12.5829C2.1625 12.7907 1.10117 13.7555 0.752341 15.0766C0.551951 15.8188 0.663279 16.7985 1.02695 17.511C1.24961 17.9489 1.88047 18.5872 2.34062 18.8469L2.72656 19.0696V21.4668C2.72656 24.2278 2.78593 24.6879 3.2164 25.5192C3.36484 25.8012 3.65429 26.2094 3.84726 26.4247C4.04765 26.6325 4.21093 26.8403 4.21093 26.8848C4.21093 26.9219 3.98828 27.9016 3.72109 29.0446C3.16445 31.3973 3.15703 31.5606 3.56523 32.1692C4.01797 32.8446 4.99765 33.1266 5.73242 32.7926C5.8957 32.7184 6.15547 32.5254 6.3039 32.3547C6.59336 32.0356 6.65273 31.8649 7.00156 30.4993L7.21679 29.668H19.3664H31.516L31.5902 29.9426C31.6273 30.0985 31.7461 30.5661 31.85 30.9817C32.1023 31.9762 32.1394 32.0579 32.4512 32.4067C32.8148 32.8075 33.2305 32.9559 33.891 32.9188C34.5367 32.8817 34.9449 32.6293 35.2492 32.0801C35.5684 31.5012 35.5387 31.1153 34.9746 28.8145L34.4922 26.8329L34.9301 26.3579C35.4125 25.8457 35.7613 25.1852 35.8949 24.5618C35.9469 24.3168 35.9766 23.1961 35.9766 21.6153V19.0622L36.3254 18.8915C36.8523 18.6317 37.4758 17.986 37.743 17.4145C38.3516 16.1305 38.166 14.6684 37.2605 13.7036C36.6 12.9911 35.9098 12.6497 34.9746 12.5532L34.5145 12.5086L34.4699 11.9743C34.2992 9.71801 32.466 7.62504 30.1504 7.03129C29.5863 6.88286 29.3191 6.88286 19.2848 6.89028C9.6289 6.89028 8.96093 6.90512 8.44883 7.03129ZM30.1875 8.18911C32.0059 8.83481 33.2305 10.3786 33.4234 12.2415L33.4754 12.7313L33.1488 12.8946C32.5922 13.1766 32.1469 13.5477 31.8723 13.9485C31.3602 14.6907 31.3527 14.7278 31.3082 17.6743L31.2637 20.3387L30.9445 20.0641C30.5215 19.7153 29.809 19.3813 29.2672 19.2848C28.666 19.1735 22.4613 19.1735 21.9344 19.2848C21.0512 19.4704 20.0566 20.1161 19.5148 20.8731L19.3516 21.0957L19.1883 20.8731C18.6465 20.1161 17.652 19.4704 16.7687 19.2848C16.5164 19.2329 15.1879 19.2032 13.0949 19.2032C9.49531 19.2032 9.28008 19.2254 8.4414 19.6485C8.18906 19.7747 7.8625 19.9973 7.69922 20.1383L7.40234 20.4055V17.9711C7.40234 16.1528 7.37265 15.4329 7.29843 15.1508C7.17968 14.7055 6.89023 14.1043 6.61562 13.7481C6.42265 13.4883 5.56914 12.8797 5.28711 12.7907C5.13867 12.7461 5.13867 12.709 5.1832 12.1895C5.29453 11.0688 5.725 10.1782 6.57851 9.32465C7.00898 8.89418 7.29101 8.68637 7.77343 8.44887C8.89414 7.89965 8.21875 7.92934 19.4629 7.94419L29.5566 7.95903L30.1875 8.18911ZM5.05703 13.8594C5.45039 14.0672 5.88828 14.4903 6.08867 14.8614C6.25195 15.1508 6.25195 15.225 6.28906 19.4778C6.32617 23.5004 6.33359 23.8122 6.45976 23.9309C6.58593 24.0571 7.20195 24.0645 19.3516 24.0645C31.5012 24.0645 32.1172 24.0571 32.2434 23.9309C32.3695 23.8122 32.3769 23.5004 32.4141 19.552C32.4586 14.7649 32.4215 15.0543 33.0523 14.379C33.5051 13.8965 34.0098 13.6813 34.6777 13.6813C35.5387 13.6813 36.2363 14.1043 36.6965 14.8911C36.9562 15.329 37.0156 16.1231 36.8301 16.6872C36.652 17.2141 36.0137 17.8672 35.5016 18.0379C34.8187 18.2754 34.8633 18.0528 34.8633 21.1032C34.8633 22.8176 34.8336 23.9383 34.7816 24.1907C34.5516 25.2668 33.7574 26.1278 32.7184 26.4321C32.3547 26.536 30.9742 26.5508 19.3516 26.5508C7.7289 26.5508 6.34843 26.536 5.98476 26.4321C4.9457 26.1278 4.15156 25.2668 3.92148 24.1907C3.86953 23.9383 3.83984 22.8176 3.83984 21.1254C3.83984 19.5 3.81015 18.3942 3.76562 18.3125C3.72851 18.2383 3.56523 18.1344 3.41679 18.0899C3.00859 17.9637 2.4 17.5332 2.17734 17.2141C1.6875 16.509 1.62812 15.559 2.0289 14.8317C2.62265 13.7407 3.97343 13.3028 5.05703 13.8594ZM16.2715 20.3165C17.5406 20.502 18.5203 21.4149 18.7504 22.6395L18.8098 22.9883H13.1098H7.40976L7.45429 22.7434C7.71406 21.3555 8.64179 20.5094 10.1484 20.2868C10.5789 20.2274 15.7965 20.2497 16.2715 20.3165ZM29.6012 20.5465C30.3656 20.9102 30.9445 21.5856 31.182 22.3872C31.4047 23.1442 32.0727 23.0625 25.6156 23.0625H19.923L19.975 22.7137C20.116 21.6598 21.0512 20.643 22.1199 20.3907C22.2535 20.3536 23.8937 20.3313 25.7715 20.3387L29.1855 20.3536L29.6012 20.5465ZM5.86601 27.5379L6.21484 27.6196V28.3247C6.20742 29.2301 5.73242 31.3602 5.46523 31.6422C5.27968 31.8426 4.85664 31.8797 4.64883 31.7239C4.31484 31.4715 4.32226 31.4047 4.81211 29.3266C5.20547 27.679 5.29453 27.3672 5.39101 27.4118C5.45781 27.4415 5.66562 27.5008 5.86601 27.5379ZM33.9059 29.2227C34.1434 30.1801 34.3363 31.0782 34.3437 31.2118C34.3437 31.7461 33.6906 32.0207 33.2898 31.6497C33.134 31.5086 33.0449 31.2266 32.7555 30.0317C32.5402 29.1262 32.4141 28.4211 32.4141 28.1391V27.6938L32.8816 27.575C33.134 27.5157 33.3715 27.4711 33.4086 27.4711C33.4383 27.4786 33.6609 28.2653 33.9059 29.2227ZM31.3008 28.1094V28.5547H19.3145H7.32812V28.1094V27.6641H19.3145H31.3008V28.1094Z" fill="url(#paint0_linear_57_255)"/>
<path d="M13.2359 11.2691C12.798 11.7887 13.1246 12.5234 13.8 12.5234C14.2008 12.5234 14.416 12.3824 14.5273 12.041C14.5941 11.848 14.5941 11.7145 14.5273 11.5215C14.416 11.1801 14.2008 11.0391 13.7777 11.0391C13.4809 11.0391 13.3992 11.0688 13.2359 11.2691Z" fill="#949494"/>
<path d="M18.973 11.2544C18.8023 11.4251 18.7578 11.5364 18.7578 11.7814C18.7578 12.6571 20.0715 12.8278 20.2867 11.9743C20.309 11.8704 20.309 11.6923 20.2867 11.5884C20.1457 11.0243 19.3961 10.8314 18.973 11.2544Z" fill="#949494"/>
<path d="M24.6656 11.2691C24.2277 11.7887 24.5543 12.5234 25.2297 12.5234C25.6305 12.5234 25.8457 12.3824 25.957 12.041C26.0238 11.848 26.0238 11.7145 25.957 11.5215C25.8457 11.1801 25.6305 11.0391 25.2074 11.0391C24.9105 11.0391 24.8289 11.0688 24.6656 11.2691Z" fill="#949494"/>
<path d="M10.4898 14.4161C10.1781 14.5794 10.0816 14.7426 10.0742 15.1063C10.0742 15.9227 11.1727 16.1751 11.5289 15.4329C11.8406 14.7798 11.1207 14.0747 10.4898 14.4161Z" fill="#949494"/>
<path d="M16.1824 14.4161C15.893 14.5423 15.7891 14.7278 15.7891 15.1212C15.7891 15.7817 16.5312 16.1009 17.0434 15.6704C17.2363 15.5071 17.2734 15.4255 17.2734 15.1435C17.2734 14.7204 17.1695 14.5423 16.8652 14.4087C16.5535 14.2825 16.4867 14.2825 16.1824 14.4161Z" fill="#949494"/>
<path d="M21.8973 14.416C21.6672 14.5125 21.4297 14.8539 21.4297 15.084C21.4297 15.3141 21.6598 15.6926 21.8453 15.7817C22.4168 16.0414 22.9883 15.7 22.9883 15.1063C22.9883 14.75 22.8176 14.4977 22.491 14.3715C22.2535 14.2825 22.1867 14.2899 21.8973 14.416Z" fill="#949494"/>
<path d="M27.5156 14.468C26.8625 14.9059 27.1371 15.8633 27.9164 15.8633C28.3766 15.8633 28.6289 15.6406 28.6809 15.1879C28.718 14.891 28.6957 14.8168 28.5102 14.609C28.2133 14.2824 27.857 14.2379 27.5156 14.468Z" fill="#949494"/>
</g>
<defs>
<linearGradient id="paint0_linear_57_255" x1="-6.60392" y1="27.2271" x2="27.2691" y2="-4.6266" gradientUnits="userSpaceOnUse">
<stop stop-color="#04CFA4"/>
<stop offset="1" stop-color="#04CFA4"/>
</linearGradient>
<clipPath id="clip0_57_255">
<rect width="38" height="38" fill="white" transform="translate(0.5 0.5)"/>
</clipPath>
</defs>
</svg>
