<svg width="27" height="27" viewBox="0 0 27 27" fill="none" xmlns="http://www.w3.org/2000/svg">
<path d="M11.5792 0.222042C8.66437 0.577511 6.10499 1.79626 4.01788 3.82243C1.9714 5.80798 0.64093 8.36735 0.194055 11.1857C0.0620239 12.0185 0.0620239 14.3138 0.194055 15.1467C0.53429 17.2795 1.39249 19.2904 2.72296 21.0677C3.21046 21.7228 4.53585 23.0533 5.17062 23.5205C6.95812 24.8509 8.80655 25.6482 10.9648 26.024C11.8484 26.1763 13.7222 26.2119 14.6566 26.09C20.2526 25.3892 24.7316 21.2404 25.8487 15.7306C26.0874 14.5576 26.1484 12.765 26.0011 11.5412C25.2648 5.63024 20.6132 0.978683 14.7023 0.242355C14.0167 0.161104 12.1987 0.14587 11.5792 0.222042ZM12.3866 1.52712C11.6757 2.21774 11.0054 2.52751 9.85265 2.70017C9.14679 2.80681 8.8421 2.93884 8.52726 3.27399C8.2378 3.57868 8.13116 3.74626 7.99913 4.11189C7.90265 4.38103 7.88741 4.5029 7.90773 4.92439C7.93312 5.53376 8.07023 5.85876 8.49171 6.31071C8.90304 6.75759 9.36515 6.97595 9.96945 7.01149C10.3808 7.03181 10.4722 7.02165 10.9749 6.86423C11.4624 6.71696 11.5944 6.69665 12.087 6.69665C14.23 6.69665 16.1495 7.97126 17.3429 10.1802C17.6323 10.7185 17.937 11.0435 18.3331 11.2416C19.2319 11.6834 20.1765 11.3634 21.2378 10.2513C21.6948 9.76892 21.7558 9.73337 22.0605 9.75876C22.3651 9.78415 22.548 10.0736 22.7968 10.8861C22.9593 11.4193 23.1573 11.7392 23.4468 11.9322C23.8327 12.2013 24.1323 12.2572 24.7976 12.1861L25.1632 12.1455V13.1103C25.1632 14.5627 25.0007 15.624 24.5792 16.8986C23.9648 18.7674 23.0304 20.2756 21.6085 21.6974C20.1866 23.1193 18.6784 24.0537 16.8097 24.6681C14.8191 25.3232 12.5644 25.44 10.5026 24.9931C8.9132 24.6478 7.50656 24.0131 5.90187 22.9111C5.83077 22.8603 6.11007 20.6107 6.22179 20.3162C6.27257 20.1791 6.40968 19.9099 6.5214 19.722C6.82101 19.2142 6.98859 18.6658 7.01905 18.092C7.06476 17.2541 6.85148 16.6345 6.32335 16.1064C5.99327 15.7713 5.7089 15.6189 5.08937 15.431L4.63741 15.2939L3.98234 14.6592C3.24093 13.9431 2.98702 13.7654 2.49952 13.6131C2.21515 13.5267 2.06788 13.5166 1.68702 13.5369C1.42804 13.5521 1.16906 13.5775 1.10812 13.5978L0.991321 13.6334V12.9681V12.3029H1.51945C2.40304 12.3029 2.91593 12.0845 3.42882 11.4904C3.91632 10.9267 4.02296 10.8455 4.70851 10.5002C5.42452 10.1345 5.7546 9.87048 6.02374 9.45407C6.4757 8.74314 6.49601 7.62595 6.06437 6.81853C5.80538 6.33103 5.46007 6.03649 4.63741 5.62009L3.91124 5.24939L4.59679 4.574C5.99327 3.19782 7.51671 2.26345 9.34484 1.66423C10.4062 1.31384 11.5995 1.09548 12.4425 1.08532H12.8487L12.3866 1.52712ZM15.0984 1.23767C16.9519 1.53728 18.7698 2.32439 20.3745 3.52282C21.0296 4.01032 22.2484 5.23415 22.746 5.90446C23.5484 6.9861 24.1628 8.16423 24.5792 9.43376C24.7925 10.0736 25.0464 11.1654 24.9956 11.2162C24.9855 11.2314 24.7823 11.2517 24.5487 11.272C24.1273 11.3025 24.1171 11.2974 23.9597 11.1502C23.848 11.0435 23.7718 10.8963 23.6905 10.622C23.3503 9.47946 23.0202 9.04782 22.3347 8.87517C22.0808 8.80915 21.9589 8.80407 21.7253 8.8447C21.2835 8.93103 21.0702 9.06813 20.4913 9.66228C19.7194 10.4494 19.2726 10.6525 18.7901 10.4291C18.521 10.3072 18.4245 10.1904 18.0792 9.5861C17.6374 8.80915 17.2667 8.31657 16.7081 7.75798C15.7534 6.79821 14.6007 6.16345 13.3515 5.90954C12.3155 5.70134 11.5132 5.72165 10.7261 5.97556C10.2538 6.13298 9.92882 6.14314 9.62413 6.00095C8.74562 5.60485 8.53741 4.51814 9.21788 3.90368C9.43624 3.70564 9.59874 3.65485 10.2335 3.56853C11.0257 3.46189 11.8534 3.13689 12.4933 2.67986C12.864 2.41579 13.514 1.74548 13.7628 1.36462L13.9507 1.08532L14.2148 1.11071C14.3569 1.12595 14.753 1.18689 15.0984 1.23767ZM4.06866 6.36657C4.85577 6.76774 5.14523 7.00642 5.30773 7.39235C5.46007 7.74782 5.49562 8.30642 5.38898 8.63649C5.24171 9.07829 4.98273 9.31189 4.19562 9.71306C3.4796 10.0787 3.25109 10.2615 2.80421 10.7896C2.67218 10.9521 2.45382 11.1451 2.32179 11.2213C2.11866 11.3431 2.0171 11.3634 1.59054 11.3787L1.09288 11.399L1.12335 11.2314C1.38741 9.75876 1.89523 8.34704 2.57062 7.18415C2.85499 6.68649 3.30695 6.00603 3.34757 6.00603C3.35773 6.00603 3.68273 6.16853 4.06866 6.36657ZM2.4589 14.583C2.58077 14.649 2.98195 14.9892 3.34757 15.3447C4.04835 16.0252 4.32257 16.2029 4.85577 16.3248C5.67843 16.5177 6.17101 17.1982 6.10499 18.0666C6.06945 18.5236 5.96788 18.8131 5.65812 19.3564C5.32296 19.9353 5.22648 20.2756 5.12999 21.1998C5.08429 21.6263 5.02843 22.0174 5.0132 22.0681C4.98273 22.1443 4.88624 22.0681 4.43937 21.6111C2.93624 20.0623 1.93585 18.3103 1.39249 16.2791C1.26046 15.7865 1.02687 14.6287 1.05734 14.6084C1.42296 14.4052 2.08312 14.39 2.4589 14.583Z" fill="#0BD89E"/>
<path d="M9.80186 8.84974C9.51749 8.92083 9.3753 8.99701 9.17217 9.17982C8.85733 9.46419 7.14092 11.9017 7.0546 12.1861C6.96319 12.4958 6.96319 13.2322 7.05967 13.5521C7.1003 13.6892 7.19678 13.8872 7.27296 13.9888C7.46592 14.2376 8.96905 15.4361 9.24835 15.5579C9.57335 15.7052 9.90342 15.7255 10.2995 15.6341C11.0257 15.4615 11.1476 15.5326 11.5437 16.3451C11.7773 16.8326 11.8585 17.0915 12.214 18.549C12.539 19.849 12.6913 20.3669 12.9351 20.9865C13.2144 21.6872 13.2804 21.804 13.514 22.0376C13.7171 22.2408 13.839 22.3169 14.0675 22.388C14.6058 22.5404 15.205 22.4134 15.5808 22.0579C15.662 21.9869 15.9769 21.5044 16.2866 20.9865C16.7132 20.2755 16.9417 19.9505 17.221 19.6611C17.4394 19.4326 17.6476 19.1583 17.7237 19.0009C17.8405 18.7419 17.8507 18.6759 17.8507 17.8482C17.8507 17.2185 17.871 16.924 17.9218 16.8072C17.9573 16.7158 18.2011 16.3857 18.4499 16.0658C18.9526 15.431 19.0694 15.1872 19.0694 14.7404C19.0694 14.0904 18.8155 13.7298 18.0132 13.2474C17.7136 13.0646 17.4292 12.8767 17.3835 12.8259C17.3378 12.7751 17.1144 12.3029 16.8858 11.7697C16.3577 10.5408 16.2511 10.3478 15.9769 10.1396C15.7433 9.95677 15.3472 9.81458 15.0882 9.81458C15.0019 9.81458 14.6464 9.87044 14.3011 9.93646C13.844 10.0279 13.6409 10.0482 13.5444 10.0126C13.4733 9.98724 13.0468 9.74349 12.5999 9.46927C11.5386 8.83451 11.4472 8.79896 10.6144 8.80404C10.2538 8.80912 9.88819 8.82943 9.80186 8.84974ZM12.1784 10.3072C13.3972 11.0333 13.448 11.0435 14.3823 10.8556C15.1491 10.7033 15.3319 10.7236 15.5046 10.9724C15.5554 11.0486 15.8042 11.5869 16.053 12.1759C16.378 12.9529 16.5507 13.2982 16.6878 13.4454C16.7894 13.5572 17.1194 13.7958 17.419 13.9736C18.0335 14.3494 18.1554 14.4712 18.1554 14.7353C18.1554 14.9435 18.1351 14.979 17.5765 15.6798C16.9823 16.4314 16.9671 16.472 16.9468 17.5333C16.9417 18.0208 16.9214 18.4779 16.9062 18.5439C16.8909 18.6099 16.703 18.8486 16.4898 19.0771C16.1901 19.3919 15.9667 19.7068 15.5401 20.4228C14.9714 21.3826 14.8241 21.5451 14.5448 21.5451C14.0573 21.5451 13.7323 20.8138 13.0976 18.2697C12.7116 16.7158 12.6405 16.4822 12.3765 15.9337C12.0464 15.2431 11.7976 14.9333 11.4269 14.7607C11.1171 14.6134 10.6398 14.5982 10.1523 14.7201C9.85264 14.7962 9.80186 14.7962 9.65967 14.7302C9.38546 14.5982 8.08038 13.5267 7.98389 13.354C7.9128 13.2271 7.89757 13.1052 7.90772 12.8107L7.92296 12.4298L8.75577 11.2619C9.63936 10.0228 9.79171 9.82982 9.95421 9.75873C10.0101 9.73333 10.3198 9.7181 10.6398 9.72826L11.2288 9.73841L12.1784 10.3072Z" fill="#0BD89E"/>
<path d="M19.5112 17.3151C19.1202 17.701 18.7749 18.0819 18.7394 18.1682C18.7038 18.2495 18.5769 18.8233 18.455 19.4428C18.262 20.4331 18.2468 20.5803 18.3026 20.7225C18.3382 20.8088 18.5921 21.0983 18.8663 21.3624C19.3233 21.8092 19.3843 21.8499 19.562 21.8499C19.6687 21.8499 19.7956 21.8194 19.8413 21.7838C19.9276 21.7178 21.2327 19.5799 21.3089 19.3768C21.3394 19.3006 21.2733 18.8741 21.1058 18.0311C20.8265 16.66 20.8112 16.6194 20.4253 16.6194C20.2273 16.6194 20.1866 16.6499 19.5112 17.3151ZM19.953 19.8694C19.7093 20.2756 19.5011 20.6159 19.4909 20.626C19.4808 20.6413 19.4148 20.5905 19.3437 20.5194L19.2116 20.3924L19.3944 19.4834L19.5773 18.5745L19.8718 18.2799L20.1612 17.9854L20.278 18.5592L20.3898 19.128L19.953 19.8694Z" fill="#0BD89E"/>
</svg>
