<svg width="24" height="25" viewBox="0 0 24 25" fill="none" xmlns="http://www.w3.org/2000/svg">
<rect width="24" height="24" transform="translate(0 0.293945)" fill="white"/>
<path fill-rule="evenodd" clip-rule="evenodd" d="M23.04 12.5553C23.04 11.7399 22.9668 10.9558 22.8309 10.2031H12V14.6515H18.1891C17.9225 16.089 17.1123 17.3069 15.8943 18.1224V21.0078H19.6109C21.7855 19.0058 23.04 16.0576 23.04 12.5553Z" fill="#4285F4"/>
<path fill-rule="evenodd" clip-rule="evenodd" d="M12 23.7938C15.105 23.7938 17.7081 22.764 19.6109 21.0076L15.8943 18.1222C14.8645 18.8122 13.5472 19.2199 12 19.2199C9.00474 19.2199 6.46951 17.1969 5.56519 14.4788H1.72314V17.4583C3.61542 21.2167 7.50451 23.7938 12 23.7938Z" fill="#34A853"/>
<path fill-rule="evenodd" clip-rule="evenodd" d="M5.56523 14.479C5.33523 13.789 5.20455 13.052 5.20455 12.294C5.20455 11.536 5.33523 10.799 5.56523 10.109V7.12946H1.72318C0.944318 8.68196 0.5 10.4383 0.5 12.294C0.5 14.1497 0.944318 15.906 1.72318 17.4585L5.56523 14.479Z" fill="#FBBC05"/>
<path fill-rule="evenodd" clip-rule="evenodd" d="M12 5.36781C13.6884 5.36781 15.2043 5.94804 16.3961 7.08758L19.6945 3.78917C17.7029 1.93349 15.0997 0.793945 12 0.793945C7.50451 0.793945 3.61542 3.37099 1.72314 7.1294L5.56519 10.1089C6.46951 7.39076 9.00474 5.36781 12 5.36781Z" fill="#EA4335"/>
</svg>
