<svg width="24" height="25" viewBox="0 0 24 25" fill="none" xmlns="http://www.w3.org/2000/svg">
<path d="M5.24532 1.99892C4.55625 2.24268 4.01719 2.80049 3.825 3.48018C3.75469 3.71455 3.75 4.5583 3.75938 11.8755L3.77344 20.0083L3.95625 20.3739C4.61719 21.7146 6.27188 22.0802 7.45782 21.1474C7.9125 20.7817 8.01563 20.7302 8.25 20.7302C8.52188 20.7302 8.52188 20.7302 9.77813 21.738C10.3594 22.2021 10.875 22.5771 11.0391 22.6567C11.6391 22.938 12.3563 22.938 12.9609 22.6567C13.1344 22.5771 13.6594 22.1927 14.3016 21.6817C14.8875 21.213 15.4078 20.8099 15.4594 20.7817C15.5859 20.7161 15.9141 20.7161 16.0453 20.7817C16.1016 20.8146 16.2422 20.9177 16.3594 21.0114C16.9172 21.4755 17.4 21.6677 17.9953 21.6677C18.6609 21.6677 19.1297 21.4755 19.5984 21.0114C19.9594 20.6552 20.1703 20.2521 20.2453 19.7927C20.2781 19.5911 20.2969 17.6317 20.2969 14.0646V8.64111L17.85 8.62705C15.6609 8.6083 15.3703 8.59893 15.1406 8.52392C14.4234 8.29424 13.8656 7.74111 13.6266 7.02861C13.5328 6.75205 13.5281 6.62549 13.5094 4.30986L13.4953 1.88643H9.525H5.55469L5.24532 1.99892ZM10.7484 9.49893C10.95 9.57861 11.1469 9.81768 11.1844 10.0192C11.2453 10.3427 11.175 10.4552 10.5797 11.0599L10.0172 11.6317L12.9656 11.6458C15.8438 11.6599 15.9188 11.6599 16.0781 11.7583C16.3172 11.8989 16.4531 12.1239 16.4531 12.3864C16.4531 12.6489 16.3172 12.8739 16.0781 13.0146C15.9141 13.113 15.8625 13.113 12 13.113C8.1375 13.113 8.08594 13.113 7.92188 13.0146C7.58438 12.8177 7.44375 12.3864 7.6125 12.0677C7.71094 11.8896 10.0781 9.54111 10.2188 9.48486C10.3875 9.41924 10.575 9.42393 10.7484 9.49893ZM16.0781 14.7583C16.4156 14.9552 16.5563 15.3864 16.3875 15.7052C16.35 15.7755 15.7641 16.3849 15.0844 17.0552C14.1188 18.0208 13.8188 18.288 13.6969 18.3161C13.1813 18.4239 12.7219 17.9786 12.8203 17.463C12.8484 17.3177 12.9516 17.1817 13.4203 16.713L13.9828 16.1411L11.0344 16.1271C8.15625 16.113 8.08125 16.113 7.92188 16.0146C7.33125 15.6724 7.45782 14.8427 8.12344 14.6833C8.20313 14.6599 9.99375 14.6458 12.0938 14.6505C15.8578 14.6599 15.9188 14.6599 16.0781 14.7583Z" fill="url(#paint0_linear_99_1475)"/>
<path opacity="0.5" d="M15 4.30967C15 6.55498 15.0047 6.64873 15.0938 6.79873C15.1453 6.88311 15.2531 6.99092 15.3375 7.04248C15.4875 7.13154 15.5813 7.13623 17.8453 7.13623H20.1985L20.1281 6.93936C20.0906 6.83154 19.9969 6.64404 19.9219 6.52686C19.8469 6.40967 18.8719 5.40654 17.7563 4.29561C16.0781 2.62686 15.675 2.25186 15.4406 2.12998C14.9578 1.87686 15 1.65654 15 4.30967Z" fill="#858585"/>
<defs>
<linearGradient id="paint0_linear_99_1475" x1="0.549638" y1="18.271" x2="22.8229" y2="6.78472" gradientUnits="userSpaceOnUse">
<stop stop-color="#04CFA4"/>
<stop offset="1" stop-color="#04CFA4"/>
</linearGradient>
</defs>
</svg>
