<svg width="25" height="24" viewBox="0 0 25 24" fill="none" xmlns="http://www.w3.org/2000/svg">
<path d="M20.64 6.81994L14.88 2.78994C13.31 1.68994 10.9 1.74994 9.39001 2.91994L4.38001 6.82994C3.38001 7.60994 2.59001 9.20994 2.59001 10.4699V17.3699C2.59001 19.9199 4.66001 21.9999 7.21001 21.9999H17.99C20.54 21.9999 22.61 19.9299 22.61 17.3799V10.5999C22.61 9.24994 21.74 7.58994 20.64 6.81994ZM13.35 17.9999C13.35 18.4099 13.01 18.7499 12.6 18.7499C12.19 18.7499 11.85 18.4099 11.85 17.9999V14.9999C11.85 14.5899 12.19 14.2499 12.6 14.2499C13.01 14.2499 13.35 14.5899 13.35 14.9999V17.9999Z" fill="url(#paint0_linear_37_372)"/>
<defs>
<linearGradient id="paint0_linear_37_372" x1="-1.29042" y1="6.3834" x2="22.5941" y2="22.0243" gradientUnits="userSpaceOnUse">
<stop stop-color="#04CFA4"/>
<stop offset="1" stop-color="#04CFA4"/>
</linearGradient>
</defs>
</svg>
