<svg width="24" height="25" viewBox="0 0 24 25" fill="none" xmlns="http://www.w3.org/2000/svg">
<path d="M14.528 8.02097C14.8222 7.72939 14.8243 7.25452 14.5327 6.96032C14.2411 6.66613 13.7662 6.66401 13.472 6.95559L11.6773 8.73438C11.0013 9.40432 10.4489 9.95187 10.0571 10.4397C9.64963 10.9471 9.35469 11.462 9.27591 12.0801C9.24136 12.3511 9.24136 12.6254 9.27591 12.8964C9.35469 13.5146 9.64963 14.0295 10.0571 14.5368C10.4489 15.0247 11.0013 15.5722 11.6773 16.2422L13.472 18.021C13.7662 18.3126 14.2411 18.3104 14.5327 18.0162C14.8243 17.722 14.8222 17.2472 14.528 16.9556L12.765 15.2083C12.0495 14.4991 11.5587 14.0111 11.2266 13.5976C10.904 13.1959 10.7933 12.9379 10.7639 12.7068C10.7454 12.5617 10.7454 12.4149 10.7639 12.2698C10.7933 12.0387 10.904 11.7807 11.2266 11.379C11.5587 10.9655 12.0495 10.4774 12.765 9.76828L14.528 8.02097Z" fill="#2D264B"/>
</svg>
