<svg width="282" height="129" viewBox="0 0 282 129" fill="none" xmlns="http://www.w3.org/2000/svg">
<path d="M153.234 49.2893C156.445 49.2893 159.252 49.9259 161.654 51.199C164.055 52.4721 165.907 54.266 167.209 56.5807C168.54 58.8666 169.205 61.514 169.205 64.5232C169.205 67.5034 168.54 70.1509 167.209 72.4657C165.907 74.7804 164.041 76.5743 161.61 77.8475C159.209 79.1206 156.416 79.7571 153.234 79.7571H141.819V49.2893H153.234ZM152.756 73.3337C155.563 73.3337 157.747 72.5669 159.31 71.0334C160.872 69.4999 161.654 67.3298 161.654 64.5232C161.654 61.7166 160.872 59.532 159.31 57.9696C157.747 56.4071 155.563 55.6259 152.756 55.6259H149.241V73.3337H152.756Z" fill="black"/>
<path d="M191.017 79.7571L180.775 66.3027V79.7571H173.353V49.2893H180.775V62.6569L190.931 49.2893H199.654L187.849 64.2194L200.088 79.7571H191.017Z" fill="black"/>
<path d="M229.743 49.2893L219.196 69.688V79.7571H211.775V69.688L201.228 49.2893H209.648L215.551 62.0493L221.41 49.2893H229.743Z" fill="black"/>
<path d="M243.757 80.0609C241.529 80.0609 239.533 79.6992 237.768 78.9758C236.003 78.2525 234.585 77.1819 233.514 75.7641C232.473 74.3463 231.923 72.6392 231.865 70.6427H239.764C239.88 71.7712 240.271 72.6392 240.936 73.2468C241.602 73.8255 242.47 74.1149 243.54 74.1149C244.64 74.1149 245.508 73.8689 246.144 73.377C246.781 72.8562 247.099 72.1473 247.099 71.2504C247.099 70.4981 246.839 69.876 246.318 69.3841C245.826 68.8922 245.204 68.4871 244.452 68.1689C243.728 67.8506 242.687 67.4889 241.327 67.0838C239.359 66.4762 237.753 65.8686 236.509 65.261C235.265 64.6533 234.194 63.7564 233.297 62.5701C232.401 61.3838 231.952 59.8358 231.952 57.9261C231.952 55.0906 232.979 52.8771 235.034 51.2857C237.088 49.6654 239.764 48.8552 243.063 48.8552C246.419 48.8552 249.125 49.6654 251.179 51.2857C253.233 52.8771 254.333 55.105 254.477 57.9695H246.448C246.39 56.9858 246.029 56.219 245.363 55.6693C244.698 55.0906 243.844 54.8012 242.802 54.8012C241.905 54.8012 241.182 55.0472 240.632 55.539C240.083 56.002 239.808 56.6819 239.808 57.5789C239.808 58.5627 240.271 59.3294 241.197 59.8792C242.122 60.4289 243.569 61.0221 245.537 61.6586C247.504 62.3241 249.096 62.9607 250.311 63.5683C251.555 64.1759 252.626 65.0584 253.523 66.2158C254.42 67.3732 254.868 68.8633 254.868 70.6861C254.868 72.4222 254.42 73.9991 253.523 75.4169C252.655 76.8347 251.381 77.9631 249.703 78.8022C248.025 79.6413 246.043 80.0609 243.757 80.0609Z" fill="#04CFA4"/>
<path d="M270.459 80.0609C268.231 80.0609 266.235 79.6992 264.47 78.9758C262.705 78.2525 261.287 77.1819 260.217 75.7641C259.175 74.3463 258.625 72.6392 258.567 70.6427H266.466C266.582 71.7712 266.973 72.6392 267.638 73.2468C268.304 73.8255 269.172 74.1149 270.242 74.1149C271.342 74.1149 272.21 73.8689 272.846 73.377C273.483 72.8562 273.801 72.1473 273.801 71.2504C273.801 70.4981 273.541 69.876 273.02 69.3841C272.528 68.8922 271.906 68.4871 271.154 68.1689C270.43 67.8506 269.389 67.4889 268.029 67.0838C266.061 66.4762 264.455 65.8686 263.211 65.261C261.967 64.6533 260.897 63.7564 260 62.5701C259.103 61.3838 258.654 59.8358 258.654 57.9261C258.654 55.0906 259.681 52.8771 261.736 51.2857C263.79 49.6654 266.466 48.8552 269.765 48.8552C273.121 48.8552 275.827 49.6654 277.881 51.2857C279.935 52.8771 281.035 55.105 281.179 57.9695H273.15C273.092 56.9858 272.731 56.219 272.065 55.6693C271.4 55.0906 270.546 54.8012 269.504 54.8012C268.607 54.8012 267.884 55.0472 267.334 55.539C266.785 56.002 266.51 56.6819 266.51 57.5789C266.51 58.5627 266.973 59.3294 267.899 59.8792C268.824 60.4289 270.271 61.0221 272.239 61.6586C274.206 62.3241 275.798 62.9607 277.013 63.5683C278.257 64.1759 279.328 65.0584 280.225 66.2158C281.122 67.3732 281.57 68.8633 281.57 70.6861C281.57 72.4222 281.122 73.9991 280.225 75.4169C279.357 76.8347 278.083 77.9631 276.405 78.8022C274.727 79.6413 272.745 80.0609 270.459 80.0609Z" fill="#04CFA4"/>
<path d="M122.891 36.5097C122.465 35.8786 121.755 35.5157 120.998 35.5157H72.7806C72.5281 33.6223 72.1494 30.9559 71.8339 29.7094C71.7708 29.4885 71.7392 29.2361 71.6919 28.9836C71.3448 27.043 70.6032 23.0196 65.081 22.4516C60.6158 21.9941 56.9554 21.8363 56.7976 21.8205C55.5196 21.7732 54.4467 22.7514 54.3994 24.0294C54.352 25.3074 55.3302 26.3803 56.6083 26.4276C56.6398 26.4276 60.2687 26.5854 64.6076 27.0272C66.6903 27.2481 66.8481 28.0528 67.1636 29.8041C67.2268 30.167 67.2899 30.5141 67.3688 30.8297C67.7159 32.2023 68.2681 36.4466 68.4574 38.0401L70.2877 67.4185L70.4297 72.5148C70.5085 75.4337 72.8752 77.7372 75.7941 77.7372H105.204C106.482 77.7372 107.508 76.7117 107.508 75.4337C107.508 74.1557 106.482 73.1301 105.204 73.1301H75.7941C75.3839 73.1301 75.0526 72.7988 75.0368 72.3885L74.9579 69.6274H100.029H109.701C110.647 69.6274 111.515 69.0436 111.847 68.1443L123.128 38.6555C123.396 37.9455 123.301 37.1566 122.875 36.5255L122.891 36.5097ZM115.712 45.1559H105.125L105.756 40.107H117.653L115.728 45.1559H115.712ZM112.067 54.67H103.926L104.541 49.7631H113.945L112.067 54.67ZM88.6373 64.9887L88.6058 59.2771H98.7036L97.9936 64.9887H88.6373ZM73.7903 49.7631H83.9513L83.9828 54.67H74.1059L73.8061 49.7631H73.7903ZM74.3899 59.2771H83.9986L84.0302 64.9887H74.7528L74.3899 59.2771ZM88.5742 54.67L88.5426 49.7631H99.8869L99.2716 54.67H88.5742ZM88.5269 45.1559L88.4953 40.107H101.086L100.455 45.1559H88.5111H88.5269ZM83.8882 40.107L83.9197 45.1559H73.5063L73.1908 40.107H83.904H83.8882ZM108.107 64.9887H102.632L103.342 59.2771H110.3L108.107 64.9887Z" fill="#04CFA4"/>
<path d="M76.6619 79.3625C73.1434 79.3625 70.2876 82.2183 70.2876 85.7368C70.2876 89.2553 73.1434 92.1111 76.6619 92.1111C80.1803 92.1111 83.0361 89.2553 83.0361 85.7368C83.0361 82.2183 80.1803 79.3625 76.6619 79.3625ZM76.6619 87.4881C75.6836 87.4881 74.8947 86.6993 74.8947 85.721C74.8947 84.7428 75.6836 83.9539 76.6619 83.9539C77.6401 83.9539 78.429 84.7428 78.429 85.721C78.429 86.6993 77.6401 87.4881 76.6619 87.4881Z" fill="#04CFA4"/>
<path d="M103.815 79.3625C100.297 79.3625 97.4412 82.2183 97.4412 85.7368C97.4412 89.2553 100.297 92.1111 103.815 92.1111C107.334 92.1111 110.19 89.2553 110.19 85.7368C110.19 82.2183 107.334 79.3625 103.815 79.3625ZM103.815 87.4881C102.837 87.4881 102.048 86.6993 102.048 85.721C102.048 84.7428 102.837 83.9539 103.815 83.9539C104.794 83.9539 105.583 84.7428 105.583 85.721C105.583 86.6993 104.794 87.4881 103.815 87.4881Z" fill="#04CFA4"/>
<path d="M93.8122 86.2416H87.6746L91.5087 103.045L28.6812 117.387L7.3338 23.9349L70.177 9.59278L73.869 25.7966H80.0066L75.147 4.49653C74.4528 1.48296 71.4708 -0.394605 68.4572 0.283843L4.84089 14.8153C1.8431 15.5095 -0.0502416 18.5073 0.643984 21.5051L23.9637 123.682C24.6579 126.696 27.6399 128.574 30.6535 127.879L94.2698 113.364C97.2834 112.67 99.1609 109.688 98.4667 106.674L93.7965 86.2416H93.8122Z" fill="#04CFA4"/>
<path d="M62.6196 44.9035H53.0582C51.654 44.9035 50.5022 43.7517 50.5022 42.3475C50.5022 40.9433 51.654 39.7915 53.0582 39.7915H62.6196C64.0238 39.7915 65.1756 40.9433 65.1756 42.3475C65.1756 43.7517 64.0238 44.9035 62.6196 44.9035Z" fill="#04CFA4"/>
<path d="M62.6196 63.5529H53.0582C51.654 63.5529 50.5022 62.4012 50.5022 60.9969C50.5022 59.5927 51.654 58.4409 53.0582 58.4409H62.6196C64.0238 58.4409 65.1756 59.5927 65.1756 60.9969C65.1756 62.4012 64.0238 63.5529 62.6196 63.5529Z" fill="#04CFA4"/>
<path d="M62.2249 54.2285H42.4711C41.0668 54.2285 39.915 53.0767 39.915 51.6725C39.915 50.2682 41.0668 49.1165 42.4711 49.1165H62.2249C63.6292 49.1165 64.7809 50.2682 64.7809 51.6725C64.7809 53.0767 63.6292 54.2285 62.2249 54.2285Z" fill="#04CFA4"/>
</svg>
