<svg width="282" height="129" viewBox="0 0 282 129" fill="none" xmlns="http://www.w3.org/2000/svg">
<path d="M153.329 49.3967C156.541 49.3967 159.347 50.0333 161.749 51.3064C164.151 52.5795 166.002 54.3734 167.304 56.6882C168.635 58.974 169.301 61.6215 169.301 64.6306C169.301 67.6109 168.635 70.2584 167.304 72.5731C166.002 74.8878 164.136 76.6818 161.706 77.9549C159.304 79.228 156.512 79.8645 153.329 79.8645H141.915V49.3967H153.329ZM152.852 73.4411C155.658 73.4411 157.843 72.6744 159.405 71.1408C160.968 69.6073 161.749 67.4373 161.749 64.6306C161.749 61.824 160.968 59.6395 159.405 58.077C157.843 56.5146 155.658 55.7333 152.852 55.7333H149.336V73.4411H152.852Z" fill="white"/>
<path d="M191.113 79.8645L180.87 66.4101V79.8645H173.448V49.3967H180.87V62.7644L191.026 49.3967H199.75L187.944 64.3268L200.184 79.8645H191.113Z" fill="white"/>
<path d="M229.838 49.3967L219.292 69.7954V79.8645H211.87V69.7954L201.324 49.3967H209.744L215.646 62.1567L221.505 49.3967H229.838Z" fill="white"/>
<path d="M243.853 80.1683C241.625 80.1683 239.628 79.8066 237.863 79.0832C236.098 78.3599 234.681 77.2893 233.61 75.8715C232.568 74.4538 232.019 72.7466 231.961 70.7502H239.86C239.975 71.8786 240.366 72.7466 241.032 73.3543C241.697 73.9329 242.565 74.2223 243.636 74.2223C244.735 74.2223 245.603 73.9763 246.24 73.4845C246.876 72.9636 247.195 72.2547 247.195 71.3578C247.195 70.6055 246.934 69.9834 246.413 69.4915C245.921 68.9996 245.299 68.5946 244.547 68.2763C243.824 67.958 242.782 67.5963 241.422 67.1912C239.455 66.5836 237.849 65.976 236.605 65.3684C235.36 64.7608 234.29 63.8638 233.393 62.6775C232.496 61.4912 232.047 59.9432 232.047 58.0335C232.047 55.198 233.075 52.9845 235.129 51.3931C237.183 49.7728 239.86 48.9626 243.158 48.9626C246.515 48.9626 249.22 49.7728 251.274 51.3931C253.329 52.9845 254.428 55.2125 254.573 58.0769H246.544C246.486 57.0932 246.124 56.3264 245.459 55.7767C244.793 55.198 243.939 54.9086 242.898 54.9086C242.001 54.9086 241.278 55.1546 240.728 55.6465C240.178 56.1094 239.903 56.7894 239.903 57.6863C239.903 58.6701 240.366 59.4369 241.292 59.9866C242.218 60.5364 243.665 61.1295 245.632 61.7661C247.6 62.4316 249.191 63.0681 250.406 63.6757C251.65 64.2834 252.721 65.1658 253.618 66.3232C254.515 67.4806 254.963 68.9707 254.963 70.7936C254.963 72.5296 254.515 74.1065 253.618 75.5243C252.75 76.9421 251.477 78.0705 249.799 78.9096C248.121 79.7487 246.138 80.1683 243.853 80.1683Z" fill="#04CFA4"/>
<path d="M270.555 80.1683C268.327 80.1683 266.33 79.8066 264.565 79.0832C262.8 78.3599 261.383 77.2893 260.312 75.8715C259.27 74.4538 258.721 72.7466 258.663 70.7502H266.562C266.678 71.8786 267.068 72.7466 267.734 73.3543C268.399 73.9329 269.267 74.2223 270.338 74.2223C271.437 74.2223 272.305 73.9763 272.942 73.4845C273.578 72.9636 273.897 72.2547 273.897 71.3578C273.897 70.6055 273.636 69.9834 273.115 69.4915C272.624 68.9996 272.001 68.5946 271.249 68.2763C270.526 67.958 269.484 67.5963 268.124 67.1912C266.157 66.5836 264.551 65.976 263.307 65.3684C262.063 64.7608 260.992 63.8638 260.095 62.6775C259.198 61.4912 258.75 59.9432 258.75 58.0335C258.75 55.198 259.777 52.9845 261.831 51.3931C263.885 49.7728 266.562 48.9626 269.86 48.9626C273.217 48.9626 275.922 49.7728 277.976 51.3931C280.031 52.9845 281.13 55.2125 281.275 58.0769H273.246C273.188 57.0932 272.826 56.3264 272.161 55.7767C271.495 55.198 270.642 54.9086 269.6 54.9086C268.703 54.9086 267.98 55.1546 267.43 55.6465C266.88 56.1094 266.605 56.7894 266.605 57.6863C266.605 58.6701 267.068 59.4369 267.994 59.9866C268.92 60.5364 270.367 61.1295 272.334 61.7661C274.302 62.4316 275.893 63.0681 277.108 63.6757C278.353 64.2834 279.423 65.1658 280.32 66.3232C281.217 67.4806 281.666 68.9707 281.666 70.7936C281.666 72.5296 281.217 74.1065 280.32 75.5243C279.452 76.9421 278.179 78.0705 276.501 78.9096C274.823 79.7487 272.841 80.1683 270.555 80.1683Z" fill="#04CFA4"/>
<path d="M122.987 36.6171C122.56 35.986 121.851 35.6231 121.093 35.6231H72.876C72.6236 33.7298 72.2449 31.0633 71.9293 29.8168C71.8662 29.596 71.8347 29.3435 71.7873 29.0911C71.4402 27.1504 70.6987 23.127 65.1764 22.559C60.7113 22.1015 57.0508 21.9437 56.893 21.9279C55.615 21.8806 54.5421 22.8588 54.4948 24.1368C54.4475 25.4148 55.4257 26.4877 56.7037 26.5351C56.7353 26.5351 60.3642 26.6928 64.7031 27.1346C66.7858 27.3555 66.9435 28.1602 67.2591 29.9115C67.3222 30.2744 67.3853 30.6215 67.4642 30.9371C67.8113 32.3097 68.3636 36.554 68.5529 38.1476L70.3831 67.5259L70.5251 72.6222C70.604 75.5411 72.9707 77.8446 75.8896 77.8446H105.3C106.578 77.8446 107.603 76.8191 107.603 75.5411C107.603 74.2631 106.578 73.2375 105.3 73.2375H75.8896C75.4794 73.2375 75.148 72.9062 75.1323 72.496L75.0534 69.7348H100.124H109.796C110.743 69.7348 111.611 69.151 111.942 68.2517L123.223 38.7629C123.491 38.0529 123.397 37.264 122.971 36.6329L122.987 36.6171ZM115.808 45.2634H105.221L105.852 40.2145H117.748L115.823 45.2634H115.808ZM112.163 54.7774H104.022L104.637 49.8705H114.04L112.163 54.7774ZM88.7328 65.0961L88.7012 59.3846H98.799L98.089 65.0961H88.7328ZM73.8858 49.8705H84.0467L84.0783 54.7774H74.2014L73.9016 49.8705H73.8858ZM74.4854 59.3846H84.0941L84.1256 65.0961H74.8483L74.4854 59.3846ZM88.6697 54.7774L88.6381 49.8705H99.9824L99.367 54.7774H88.6697ZM88.6223 45.2634L88.5908 40.2145H101.181L100.55 45.2634H88.6065H88.6223ZM83.9836 40.2145L84.0152 45.2634H73.6018L73.2862 40.2145H83.9994H83.9836ZM108.203 65.0961H102.728L103.438 59.3846H110.396L108.203 65.0961Z" fill="#04CFA4"/>
<path d="M76.7573 79.47C73.2389 79.47 70.3831 82.3258 70.3831 85.8442C70.3831 89.3627 73.2389 92.2185 76.7573 92.2185C80.2758 92.2185 83.1316 89.3627 83.1316 85.8442C83.1316 82.3258 80.2758 79.47 76.7573 79.47ZM76.7573 87.5956C75.7791 87.5956 74.9902 86.8067 74.9902 85.8284C74.9902 84.8502 75.7791 84.0613 76.7573 84.0613C77.7355 84.0613 78.5244 84.8502 78.5244 85.8284C78.5244 86.8067 77.7355 87.5956 76.7573 87.5956Z" fill="#04CFA4"/>
<path d="M103.911 79.47C100.392 79.47 97.5366 82.3258 97.5366 85.8442C97.5366 89.3627 100.392 92.2185 103.911 92.2185C107.429 92.2185 110.285 89.3627 110.285 85.8442C110.285 82.3258 107.429 79.47 103.911 79.47ZM103.911 87.5956C102.933 87.5956 102.144 86.8067 102.144 85.8284C102.144 84.8502 102.933 84.0613 103.911 84.0613C104.889 84.0613 105.678 84.8502 105.678 85.8284C105.678 86.8067 104.889 87.5956 103.911 87.5956Z" fill="#04CFA4"/>
<path d="M93.9077 86.349H87.7701L91.6041 103.152L28.7767 117.495L7.42925 24.0423L70.2725 9.7002L73.9645 25.9041H80.1021L75.2425 4.60395C74.5483 1.59038 71.5662 -0.287183 68.5527 0.391265L4.93635 14.9227C1.93856 15.6169 0.0452174 18.6147 0.739443 21.6125L24.0591 123.79C24.7533 126.803 27.7354 128.681 30.7489 127.987L94.3653 113.471C97.3788 112.777 99.2564 109.795 98.5622 106.781L93.8919 86.349H93.9077Z" fill="#04CFA4"/>
<path d="M62.715 45.011H53.1537C51.7494 45.011 50.5977 43.8592 50.5977 42.4549C50.5977 41.0507 51.7494 39.8989 53.1537 39.8989H62.715C64.1193 39.8989 65.2711 41.0507 65.2711 42.4549C65.2711 43.8592 64.1193 45.011 62.715 45.011Z" fill="#04CFA4"/>
<path d="M62.715 63.6604H53.1537C51.7494 63.6604 50.5977 62.5086 50.5977 61.1044C50.5977 59.7001 51.7494 58.5483 53.1537 58.5483H62.715C64.1193 58.5483 65.2711 59.7001 65.2711 61.1044C65.2711 62.5086 64.1193 63.6604 62.715 63.6604Z" fill="#04CFA4"/>
<path d="M62.3204 54.3359H42.5665C41.1623 54.3359 40.0105 53.1841 40.0105 51.7799C40.0105 50.3757 41.1623 49.2239 42.5665 49.2239H62.3204C63.7246 49.2239 64.8764 50.3757 64.8764 51.7799C64.8764 53.1841 63.7246 54.3359 62.3204 54.3359Z" fill="#04CFA4"/>
</svg>
