<svg width="114" height="120" viewBox="0 0 114 120" fill="none" xmlns="http://www.w3.org/2000/svg">
<path d="M93.2258 21.9976C92.9744 21.6252 92.5554 21.411 92.1085 21.411H63.6547C63.5057 20.2937 63.2823 18.7202 63.096 17.9847C63.0588 17.8543 63.0402 17.7053 63.0122 17.5564C62.8074 16.4111 62.3698 14.0369 59.111 13.7017C56.4761 13.4317 54.316 13.3386 54.2229 13.3293C53.4687 13.3013 52.8355 13.8786 52.8076 14.6328C52.7797 15.3869 53.357 16.0201 54.1111 16.048C54.1297 16.048 56.2712 16.1411 58.8317 16.4018C60.0607 16.5322 60.1538 17.007 60.34 18.0405C60.3773 18.2547 60.4145 18.4595 60.4611 18.6457C60.6659 19.4558 60.9918 21.9604 61.1035 22.9008L62.1836 40.2375L62.2674 43.2448C62.3139 44.9673 63.7106 46.3267 65.4331 46.3267H82.7884C83.5425 46.3267 84.1477 45.7215 84.1477 44.9673C84.1477 44.2132 83.5425 43.608 82.7884 43.608H65.4331C65.191 43.608 64.9954 43.4124 64.9861 43.1704L64.9396 41.541H79.7344H85.4419C86.0006 41.541 86.5127 41.1965 86.7082 40.6657L93.3654 23.2639C93.5237 22.8449 93.4679 22.3793 93.2165 22.0069L93.2258 21.9976ZM88.9894 27.0999H82.7418L83.1143 24.1205H90.1346L88.9987 27.0999H88.9894ZM86.8386 32.7143H82.0342L82.3973 29.8187H87.9466L86.8386 32.7143ZM73.012 38.8036L72.9934 35.4331H78.9523L78.5333 38.8036H73.012ZM64.2506 29.8187H70.2467L70.2654 32.7143H64.4368L64.2599 29.8187H64.2506ZM64.6044 35.4331H70.2747L70.2933 38.8036H64.8185L64.6044 35.4331ZM72.9748 32.7143L72.9562 29.8187H79.6506L79.2875 32.7143H72.9748ZM72.9469 27.0999L72.9282 24.1205H80.3583L79.9858 27.0999H72.9375H72.9469ZM70.2095 24.1205L70.2281 27.0999H64.083L63.8968 24.1205H70.2188H70.2095ZM84.5016 38.8036H81.2707L81.6897 35.4331H85.7958L84.5016 38.8036Z" fill="#0BD89E"/>
<path d="M65.9453 47.2857C63.869 47.2857 62.1837 48.971 62.1837 51.0473C62.1837 53.1236 63.869 54.8089 65.9453 54.8089C68.0216 54.8089 69.7068 53.1236 69.7068 51.0473C69.7068 48.971 68.0216 47.2857 65.9453 47.2857ZM65.9453 52.0808C65.368 52.0808 64.9025 51.6153 64.9025 51.038C64.9025 50.4607 65.368 49.9952 65.9453 49.9952C66.5225 49.9952 66.9881 50.4607 66.9881 51.038C66.9881 51.6153 66.5225 52.0808 65.9453 52.0808Z" fill="#0BD89E"/>
<path d="M81.9691 47.2857C79.8928 47.2857 78.2075 48.971 78.2075 51.0473C78.2075 53.1236 79.8928 54.8089 81.9691 54.8089C84.0454 54.8089 85.7306 53.1236 85.7306 51.0473C85.7306 48.971 84.0454 47.2857 81.9691 47.2857ZM81.9691 52.0808C81.3918 52.0808 80.9263 51.6153 80.9263 51.038C80.9263 50.4607 81.3918 49.9952 81.9691 49.9952C82.5464 49.9952 83.0119 50.4607 83.0119 51.038C83.0119 51.6153 82.5464 52.0808 81.9691 52.0808Z" fill="#0BD89E"/>
<path d="M76.0661 51.3451H72.4442L74.7068 61.2611L37.6312 69.7246L25.0337 14.5768L62.1186 6.11329L64.2973 15.6755H67.9192L65.0515 3.1059C64.6418 1.32754 62.8821 0.219557 61.1037 0.619921L23.5626 9.19516C21.7935 9.60484 20.6762 11.3739 21.0859 13.1429L34.8473 73.4396C35.2569 75.218 37.0167 76.326 38.795 75.9163L76.3362 67.3504C78.1145 66.9407 79.2225 65.181 78.8128 63.4026L76.0568 51.3451H76.0661Z" fill="#0BD89E"/>
<path d="M57.6586 26.9508H52.0163C51.1876 26.9508 50.5079 26.2711 50.5079 25.4425C50.5079 24.6138 51.1876 23.9341 52.0163 23.9341H57.6586C58.4873 23.9341 59.167 24.6138 59.167 25.4425C59.167 26.2711 58.4873 26.9508 57.6586 26.9508Z" fill="#0BD89E"/>
<path d="M57.6586 37.9561H52.0163C51.1876 37.9561 50.5079 37.2764 50.5079 36.4477C50.5079 35.6191 51.1876 34.9394 52.0163 34.9394H57.6586C58.4873 34.9394 59.167 35.6191 59.167 36.4477C59.167 37.2764 58.4873 37.9561 57.6586 37.9561Z" fill="#0BD89E"/>
<path d="M57.4258 32.4535H45.7687C44.9401 32.4535 44.2604 31.7738 44.2604 30.9451C44.2604 30.1165 44.9401 29.4368 45.7687 29.4368H57.4258C58.2545 29.4368 58.9342 30.1165 58.9342 30.9451C58.9342 31.7738 58.2545 32.4535 57.4258 32.4535Z" fill="#0BD89E"/>
<path d="M34.042 94.5537C34.9796 94.7535 35.7328 95.2223 36.3015 95.9601C36.8702 96.6825 37.1545 97.5125 37.1545 98.4501C37.1545 99.8027 36.678 100.879 35.7251 101.678C34.7875 102.462 33.4733 102.854 31.7826 102.854H24.2434V86.6687H31.529C33.1736 86.6687 34.457 87.0453 35.3793 87.7984C36.3168 88.5516 36.7856 89.5737 36.7856 90.8648C36.7856 91.8178 36.532 92.6094 36.0248 93.2395C35.533 93.8697 34.872 94.3078 34.042 94.5537ZM28.1859 93.2165H30.7681C31.4137 93.2165 31.9055 93.0782 32.2437 92.8015C32.5972 92.5094 32.774 92.0868 32.774 91.5334C32.774 90.9801 32.5972 90.5574 32.2437 90.2654C31.9055 89.9733 31.4137 89.8273 30.7681 89.8273H28.1859V93.2165ZM31.0909 99.672C31.7518 99.672 32.2591 99.526 32.6126 99.234C32.9815 98.9266 33.1659 98.4885 33.1659 97.9198C33.1659 97.3511 32.9738 96.9054 32.5895 96.5826C32.2206 96.2598 31.7057 96.0984 31.0448 96.0984H28.1859V99.672H31.0909Z" fill="black"/>
<path d="M47.2801 89.8504C48.7864 89.8504 49.9853 90.3422 50.8767 91.3259C51.7836 92.2943 52.237 93.6315 52.237 95.3376V102.854H48.3176V95.8679C48.3176 95.0071 48.0947 94.3385 47.649 93.862C47.2032 93.3856 46.6038 93.1473 45.8506 93.1473C45.0975 93.1473 44.498 93.3856 44.0523 93.862C43.6066 94.3385 43.3837 95.0071 43.3837 95.8679V102.854H39.4412V89.9887H43.3837V91.6948C43.7833 91.1261 44.3213 90.6804 44.9976 90.3576C45.6739 90.0194 46.4347 89.8504 47.2801 89.8504Z" fill="black"/>
<path d="M54.3081 94.7382C54.3081 93.1396 54.6539 91.7179 55.3456 90.4729C56.0372 89.2125 56.9979 88.2365 58.2275 87.5448C59.4725 86.8378 60.8789 86.4843 62.4467 86.4843C64.368 86.4843 66.0126 86.9915 67.3806 88.0059C68.7485 89.0204 69.6631 90.4037 70.1242 92.1559H65.7897C65.467 91.4796 65.0058 90.9647 64.4064 90.6112C63.8223 90.2577 63.1537 90.0809 62.4006 90.0809C61.1863 90.0809 60.2026 90.5036 59.4495 91.349C58.6963 92.1944 58.3197 93.3241 58.3197 94.7382C58.3197 96.1522 58.6963 97.2819 59.4495 98.1273C60.2026 98.9727 61.1863 99.3954 62.4006 99.3954C63.1537 99.3954 63.8223 99.2186 64.4064 98.8651C65.0058 98.5116 65.467 97.9967 65.7897 97.3204H70.1242C69.6631 99.0726 68.7485 100.456 67.3806 101.47C66.0126 102.469 64.368 102.969 62.4467 102.969C60.8789 102.969 59.4725 102.623 58.2275 101.931C56.9979 101.224 56.0372 100.248 55.3456 99.0034C54.6539 97.7584 54.3081 96.3367 54.3081 94.7382Z" fill="black"/>
<path d="M82.6138 99.9948H76.5733L75.6049 102.854H71.478L77.3341 86.6687H81.8991L87.7552 102.854H83.5822L82.6138 99.9948ZM81.5994 96.9515L79.5935 91.0262L77.6108 96.9515H81.5994ZM82.291 83.4179L76.7347 85.7465V83.0259L82.291 80.3515V83.4179Z" fill="black"/>
<path d="M0.0343018 114.83C0.0343018 114.323 0.151162 113.868 0.384882 113.465C0.623575 113.062 0.944319 112.749 1.34711 112.525C1.75488 112.296 2.19994 112.182 2.6823 112.182C3.23428 112.182 3.7241 112.318 4.15176 112.592C4.58439 112.861 4.89767 113.243 5.09161 113.741H4.06971C3.93544 113.467 3.74896 113.263 3.51027 113.129C3.27158 112.995 2.99559 112.928 2.6823 112.928C2.33918 112.928 2.03336 113.005 1.76483 113.159C1.4963 113.313 1.28495 113.534 1.1308 113.823C0.981615 114.111 0.907023 114.447 0.907023 114.83C0.907023 115.213 0.981615 115.548 1.1308 115.837C1.28495 116.125 1.4963 116.349 1.76483 116.508C2.03336 116.662 2.33918 116.739 2.6823 116.739C2.99559 116.739 3.27158 116.672 3.51027 116.538C3.74896 116.404 3.93544 116.2 4.06971 115.926H5.09161C4.89767 116.424 4.58439 116.806 4.15176 117.075C3.7241 117.343 3.23428 117.478 2.6823 117.478C2.19497 117.478 1.74991 117.366 1.34711 117.142C0.944319 116.913 0.623575 116.598 0.384882 116.195C0.151162 115.792 0.0343018 115.337 0.0343018 114.83Z" fill="black"/>
<path d="M7.86968 117.5C7.4818 117.5 7.13122 117.413 6.81794 117.239C6.50465 117.06 6.2585 116.811 6.07948 116.493C5.90046 116.17 5.81095 115.797 5.81095 115.374C5.81095 114.957 5.90295 114.586 6.08694 114.263C6.27093 113.94 6.52206 113.691 6.84032 113.517C7.15857 113.343 7.51413 113.256 7.90698 113.256C8.29982 113.256 8.65538 113.343 8.97364 113.517C9.29189 113.691 9.54302 113.94 9.72701 114.263C9.911 114.586 10.003 114.957 10.003 115.374C10.003 115.792 9.90852 116.162 9.71955 116.486C9.53059 116.809 9.272 117.06 8.9438 117.239C8.62057 117.413 8.26253 117.5 7.86968 117.5ZM7.86968 116.762C8.08848 116.762 8.29237 116.709 8.48133 116.605C8.67527 116.501 8.83191 116.344 8.95126 116.135C9.0706 115.926 9.13028 115.673 9.13028 115.374C9.13028 115.076 9.07309 114.825 8.95872 114.621C8.84434 114.412 8.69267 114.255 8.50371 114.151C8.31474 114.047 8.11086 113.994 7.89206 113.994C7.67326 113.994 7.46937 114.047 7.28041 114.151C7.09641 114.255 6.94972 114.412 6.84032 114.621C6.73092 114.825 6.67621 115.076 6.67621 115.374C6.67621 115.817 6.7881 116.16 7.01188 116.404C7.24062 116.642 7.52656 116.762 7.86968 116.762Z" fill="black"/>
<path d="M15.8189 113.256C16.1421 113.256 16.4305 113.323 16.6841 113.457C16.9427 113.592 17.1441 113.79 17.2883 114.054C17.4375 114.318 17.5121 114.636 17.5121 115.009V117.433H16.6692V115.136C16.6692 114.768 16.5772 114.487 16.3932 114.293C16.2092 114.094 15.9581 113.994 15.6398 113.994C15.3216 113.994 15.068 114.094 14.879 114.293C14.695 114.487 14.603 114.768 14.603 115.136V117.433H13.7601V115.136C13.7601 114.768 13.6681 114.487 13.4842 114.293C13.3002 114.094 13.049 113.994 12.7308 113.994C12.4125 113.994 12.1589 114.094 11.9699 114.293C11.786 114.487 11.694 114.768 11.694 115.136V117.433H10.8436V113.323H11.694V113.793C11.8332 113.624 12.0097 113.492 12.2236 113.398C12.4374 113.303 12.6661 113.256 12.9098 113.256C13.238 113.256 13.5314 113.325 13.79 113.465C14.0486 113.604 14.2475 113.805 14.3867 114.069C14.511 113.82 14.705 113.624 14.9685 113.48C15.2321 113.33 15.5155 113.256 15.8189 113.256Z" fill="black"/>
<path d="M19.4445 113.927C19.5887 113.738 19.7851 113.579 20.0338 113.45C20.2824 113.321 20.5634 113.256 20.8766 113.256C21.2347 113.256 21.5604 113.345 21.8538 113.524C22.1522 113.698 22.3859 113.945 22.555 114.263C22.724 114.581 22.8086 114.947 22.8086 115.359C22.8086 115.772 22.724 116.143 22.555 116.471C22.3859 116.794 22.1522 117.048 21.8538 117.232C21.5604 117.411 21.2347 117.5 20.8766 117.5C20.5634 117.5 20.2849 117.438 20.0412 117.314C19.7976 117.184 19.5986 117.025 19.4445 116.836V119.387H18.5941V113.323H19.4445V113.927ZM21.9433 115.359C21.9433 115.076 21.8836 114.832 21.7643 114.628C21.6499 114.419 21.4958 114.263 21.3018 114.158C21.1128 114.049 20.909 113.994 20.6902 113.994C20.4763 113.994 20.2725 114.049 20.0785 114.158C19.8895 114.268 19.7354 114.427 19.616 114.636C19.5017 114.845 19.4445 115.091 19.4445 115.374C19.4445 115.658 19.5017 115.906 19.616 116.12C19.7354 116.329 19.8895 116.488 20.0785 116.598C20.2725 116.707 20.4763 116.762 20.6902 116.762C20.909 116.762 21.1128 116.707 21.3018 116.598C21.4958 116.483 21.6499 116.319 21.7643 116.105C21.8836 115.891 21.9433 115.643 21.9433 115.359Z" fill="black"/>
<path d="M24.4998 113.92C24.6241 113.711 24.7882 113.549 24.9921 113.435C25.201 113.316 25.4471 113.256 25.7306 113.256V114.136H25.5143C25.1811 114.136 24.9275 114.221 24.7534 114.39C24.5844 114.559 24.4998 114.852 24.4998 115.27V117.433H23.6495V113.323H24.4998V113.92Z" fill="black"/>
<path d="M26.2288 115.359C26.2288 114.947 26.3133 114.581 26.4824 114.263C26.6564 113.945 26.8901 113.698 27.1835 113.524C27.4819 113.345 27.8101 113.256 28.1681 113.256C28.4914 113.256 28.7723 113.321 29.011 113.45C29.2547 113.574 29.4486 113.731 29.5928 113.92V113.323H30.4506V117.433H29.5928V116.821C29.4486 117.015 29.2522 117.177 29.0036 117.306C28.7549 117.435 28.4715 117.5 28.1532 117.5C27.8002 117.5 27.4769 117.411 27.1835 117.232C26.8901 117.048 26.6564 116.794 26.4824 116.471C26.3133 116.143 26.2288 115.772 26.2288 115.359ZM29.5928 115.374C29.5928 115.091 29.5332 114.845 29.4138 114.636C29.2994 114.427 29.1478 114.268 28.9588 114.158C28.7698 114.049 28.566 113.994 28.3472 113.994C28.1284 113.994 27.9245 114.049 27.7355 114.158C27.5465 114.263 27.3924 114.419 27.273 114.628C27.1587 114.832 27.1015 115.076 27.1015 115.359C27.1015 115.643 27.1587 115.891 27.273 116.105C27.3924 116.319 27.5465 116.483 27.7355 116.598C27.9295 116.707 28.1333 116.762 28.3472 116.762C28.566 116.762 28.7698 116.707 28.9588 116.598C29.1478 116.488 29.2994 116.329 29.4138 116.12C29.5332 115.906 29.5928 115.658 29.5928 115.374Z" fill="black"/>
<path d="M37.3466 112.249L35.631 115.553V117.433H34.7807V115.553L33.0576 112.249H34.0049L35.2059 114.792L36.4068 112.249H37.3466Z" fill="black"/>
<path d="M44.4271 112.249L42.4803 117.433H41.4957L39.5414 112.249H40.4514L41.988 116.56L43.532 112.249H44.4271Z" fill="black"/>
<path d="M48.9051 115.277C48.9051 115.431 48.8952 115.571 48.8753 115.695H45.735C45.7598 116.023 45.8817 116.287 46.1005 116.486C46.3193 116.685 46.5878 116.784 46.9061 116.784C47.3636 116.784 47.6868 116.593 47.8758 116.21H48.7932C48.6689 116.588 48.4427 116.898 48.1145 117.142C47.7912 117.381 47.3884 117.5 46.9061 117.5C46.5132 117.5 46.1602 117.413 45.8469 117.239C45.5386 117.06 45.2949 116.811 45.1159 116.493C44.9418 116.17 44.8548 115.797 44.8548 115.374C44.8548 114.952 44.9393 114.581 45.1084 114.263C45.2825 113.94 45.5236 113.691 45.832 113.517C46.1452 113.343 46.5033 113.256 46.9061 113.256C47.2939 113.256 47.6396 113.34 47.9429 113.509C48.2462 113.679 48.4824 113.917 48.6515 114.226C48.8206 114.529 48.9051 114.879 48.9051 115.277ZM48.0175 115.009C48.0125 114.695 47.9006 114.444 47.6818 114.255C47.463 114.066 47.192 113.972 46.8688 113.972C46.5754 113.972 46.3243 114.066 46.1154 114.255C45.9065 114.439 45.7822 114.691 45.7424 115.009H48.0175Z" fill="black"/>
<path d="M51.8156 113.256C52.1388 113.256 52.4272 113.323 52.6809 113.457C52.9394 113.592 53.1408 113.79 53.285 114.054C53.4293 114.318 53.5014 114.636 53.5014 115.009V117.433H52.6585V115.136C52.6585 114.768 52.5665 114.487 52.3825 114.293C52.1985 114.094 51.9474 113.994 51.6291 113.994C51.3109 113.994 51.0572 114.094 50.8683 114.293C50.6843 114.487 50.5923 114.768 50.5923 115.136V117.433H49.7419V113.323H50.5923V113.793C50.7315 113.624 50.9081 113.492 51.1219 113.398C51.3407 113.303 51.5719 113.256 51.8156 113.256Z" fill="black"/>
<path d="M54.3026 115.359C54.3026 114.947 54.3871 114.581 54.5562 114.263C54.7302 113.945 54.964 113.698 55.2574 113.524C55.5557 113.345 55.8864 113.256 56.2494 113.256C56.518 113.256 56.7815 113.316 57.0401 113.435C57.3036 113.549 57.5125 113.703 57.6667 113.897V111.913H58.5245V117.433H57.6667V116.814C57.5274 117.013 57.3335 117.177 57.0848 117.306C56.8412 117.435 56.5602 117.5 56.242 117.5C55.8839 117.5 55.5557 117.411 55.2574 117.232C54.964 117.048 54.7302 116.794 54.5562 116.471C54.3871 116.143 54.3026 115.772 54.3026 115.359ZM57.6667 115.374C57.6667 115.091 57.607 114.845 57.4876 114.636C57.3733 114.427 57.2216 114.268 57.0326 114.158C56.8437 114.049 56.6398 113.994 56.421 113.994C56.2022 113.994 55.9983 114.049 55.8093 114.158C55.6204 114.263 55.4662 114.419 55.3469 114.628C55.2325 114.832 55.1753 115.076 55.1753 115.359C55.1753 115.643 55.2325 115.891 55.3469 116.105C55.4662 116.319 55.6204 116.483 55.8093 116.598C56.0033 116.707 56.2072 116.762 56.421 116.762C56.6398 116.762 56.8437 116.707 57.0326 116.598C57.2216 116.488 57.3733 116.329 57.4876 116.12C57.607 115.906 57.6667 115.658 57.6667 115.374Z" fill="black"/>
<path d="M63.4082 115.277C63.4082 115.431 63.3983 115.571 63.3784 115.695H60.2381C60.263 116.023 60.3848 116.287 60.6036 116.486C60.8224 116.685 61.0909 116.784 61.4092 116.784C61.8667 116.784 62.1899 116.593 62.3789 116.21H63.2963C63.172 116.588 62.9458 116.898 62.6176 117.142C62.2943 117.381 61.8915 117.5 61.4092 117.5C61.0163 117.5 60.6633 117.413 60.35 117.239C60.0417 117.06 59.798 116.811 59.619 116.493C59.4449 116.17 59.3579 115.797 59.3579 115.374C59.3579 114.952 59.4424 114.581 59.6115 114.263C59.7856 113.94 60.0267 113.691 60.3351 113.517C60.6483 113.343 61.0064 113.256 61.4092 113.256C61.7971 113.256 62.1427 113.34 62.446 113.509C62.7493 113.679 62.9855 113.917 63.1546 114.226C63.3237 114.529 63.4082 114.879 63.4082 115.277ZM62.5206 115.009C62.5156 114.695 62.4037 114.444 62.1849 114.255C61.9661 114.066 61.6951 113.972 61.3719 113.972C61.0785 113.972 60.8274 114.066 60.6185 114.255C60.4097 114.439 60.2853 114.691 60.2455 115.009H62.5206Z" fill="black"/>
<path d="M68.9575 114.77C69.236 114.82 69.4722 114.966 69.6661 115.21C69.8601 115.454 69.957 115.73 69.957 116.038C69.957 116.302 69.8874 116.54 69.7482 116.754C69.6139 116.963 69.4175 117.13 69.1589 117.254C68.9003 117.373 68.5995 117.433 68.2563 117.433H66.1827V112.249H68.1594C68.5124 112.249 68.8158 112.309 69.0694 112.428C69.323 112.547 69.5145 112.709 69.6437 112.913C69.773 113.112 69.8377 113.335 69.8377 113.584C69.8377 113.882 69.7581 114.131 69.599 114.33C69.4399 114.529 69.226 114.676 68.9575 114.77ZM67.033 114.427H68.0848C68.3633 114.427 68.5796 114.365 68.7337 114.24C68.8928 114.111 68.9724 113.927 68.9724 113.688C68.9724 113.455 68.8928 113.273 68.7337 113.144C68.5796 113.01 68.3633 112.943 68.0848 112.943H67.033V114.427ZM68.1817 116.739C68.4702 116.739 68.6964 116.67 68.8605 116.53C69.0246 116.391 69.1067 116.197 69.1067 115.949C69.1067 115.695 69.0197 115.494 68.8456 115.344C68.6716 115.195 68.4403 115.121 68.1519 115.121H67.033V116.739H68.1817Z" fill="black"/>
<path d="M72.9547 113.256C73.278 113.256 73.5664 113.323 73.82 113.457C74.0786 113.592 74.28 113.79 74.4242 114.054C74.5684 114.318 74.6405 114.636 74.6405 115.009V117.433H73.7976V115.136C73.7976 114.768 73.7056 114.487 73.5216 114.293C73.3376 114.094 73.0865 113.994 72.7682 113.994C72.45 113.994 72.1964 114.094 72.0074 114.293C71.8234 114.487 71.7314 114.768 71.7314 115.136V117.433H70.8811V113.323H71.7314V113.793C71.8707 113.624 72.0472 113.492 72.261 113.398C72.4798 113.303 72.7111 113.256 72.9547 113.256Z" fill="black"/>
<path d="M75.4417 114.83C75.4417 114.323 75.5586 113.868 75.7923 113.465C76.031 113.062 76.3517 112.749 76.7545 112.525C77.1623 112.296 77.6074 112.182 78.0897 112.182C78.6417 112.182 79.1315 112.318 79.5592 112.592C79.9918 112.861 80.3051 113.243 80.499 113.741H79.4771C79.3428 113.467 79.1564 113.263 78.9177 113.129C78.679 112.995 78.403 112.928 78.0897 112.928C77.7466 112.928 77.4408 113.005 77.1722 113.159C76.9037 113.313 76.6924 113.534 76.5382 113.823C76.389 114.111 76.3144 114.447 76.3144 114.83C76.3144 115.213 76.389 115.548 76.5382 115.837C76.6924 116.125 76.9037 116.349 77.1722 116.508C77.4408 116.662 77.7466 116.739 78.0897 116.739C78.403 116.739 78.679 116.672 78.9177 116.538C79.1564 116.404 79.3428 116.2 79.4771 115.926H80.499C80.3051 116.424 79.9918 116.806 79.5592 117.075C79.1315 117.343 78.6417 117.478 78.0897 117.478C77.6024 117.478 77.1573 117.366 76.7545 117.142C76.3517 116.913 76.031 116.598 75.7923 116.195C75.5586 115.792 75.4417 115.337 75.4417 114.83Z" fill="black"/>
<path d="M84.6197 116.374H82.4491L82.0762 117.433H81.1885L83.0459 112.241H84.0305L85.8878 117.433H84.9927L84.6197 116.374ZM84.3811 115.68L83.5382 113.271L82.6878 115.68H84.3811ZM84.3065 111.137L82.658 111.951V111.324L84.3065 110.414V111.137Z" fill="black"/>
<path d="M91.3258 117.433L90.1323 115.359H89.4833V117.433H88.633V112.249H90.4232C90.821 112.249 91.1567 112.318 91.4302 112.458C91.7087 112.597 91.915 112.783 92.0493 113.017C92.1885 113.251 92.2582 113.512 92.2582 113.8C92.2582 114.139 92.1587 114.447 91.9598 114.725C91.7659 114.999 91.465 115.185 91.0572 115.285L92.3402 117.433H91.3258ZM89.4833 114.681H90.4232C90.7415 114.681 90.9801 114.601 91.1393 114.442C91.3034 114.283 91.3854 114.069 91.3854 113.8C91.3854 113.532 91.3059 113.323 91.1467 113.174C90.9876 113.02 90.7464 112.943 90.4232 112.943H89.4833V114.681Z" fill="black"/>
<path d="M97.1128 115.277C97.1128 115.431 97.1029 115.571 97.083 115.695H93.9427C93.9676 116.023 94.0894 116.287 94.3082 116.486C94.527 116.685 94.7955 116.784 95.1138 116.784C95.5713 116.784 95.8945 116.593 96.0835 116.21H97.001C96.8766 116.588 96.6504 116.898 96.3222 117.142C95.9989 117.381 95.5961 117.5 95.1138 117.5C94.7209 117.5 94.3679 117.413 94.0546 117.239C93.7463 117.06 93.5026 116.811 93.3236 116.493C93.1495 116.17 93.0625 115.797 93.0625 115.374C93.0625 114.952 93.147 114.581 93.3161 114.263C93.4902 113.94 93.7314 113.691 94.0397 113.517C94.353 113.343 94.711 113.256 95.1138 113.256C95.5017 113.256 95.8473 113.34 96.1506 113.509C96.4539 113.679 96.6902 113.917 96.8592 114.226C97.0283 114.529 97.1128 114.879 97.1128 115.277ZM96.2252 115.009C96.2202 114.695 96.1083 114.444 95.8895 114.255C95.6707 114.066 95.3997 113.972 95.0765 113.972C94.7831 113.972 94.532 114.066 94.3231 114.255C94.1143 114.439 93.9899 114.691 93.9502 115.009H96.2252Z" fill="black"/>
<path d="M99.6056 113.256C99.9239 113.256 100.205 113.321 100.448 113.45C100.697 113.574 100.891 113.731 101.03 113.92V113.323H101.888V117.5C101.888 117.878 101.809 118.214 101.649 118.507C101.49 118.805 101.259 119.039 100.956 119.208C100.657 119.377 100.299 119.462 99.8816 119.462C99.3246 119.462 98.8622 119.33 98.4942 119.067C98.1262 118.808 97.9173 118.455 97.8676 118.007H98.7105C98.7751 118.221 98.9119 118.393 99.1208 118.522C99.3346 118.656 99.5882 118.723 99.8816 118.723C100.225 118.723 100.501 118.619 100.71 118.41C100.923 118.201 101.03 117.898 101.03 117.5V116.814C100.886 117.008 100.69 117.172 100.441 117.306C100.197 117.435 99.9189 117.5 99.6056 117.5C99.2476 117.5 98.9194 117.411 98.621 117.232C98.3276 117.048 98.0939 116.794 97.9198 116.471C97.7507 116.143 97.6662 115.772 97.6662 115.359C97.6662 114.947 97.7507 114.581 97.9198 114.263C98.0939 113.945 98.3276 113.698 98.621 113.524C98.9194 113.345 99.2476 113.256 99.6056 113.256ZM101.03 115.374C101.03 115.091 100.971 114.845 100.851 114.636C100.737 114.427 100.585 114.268 100.396 114.158C100.207 114.049 100.003 113.994 99.7846 113.994C99.5658 113.994 99.3619 114.049 99.173 114.158C98.984 114.263 98.8298 114.419 98.7105 114.628C98.5961 114.832 98.5389 115.076 98.5389 115.359C98.5389 115.643 98.5961 115.891 98.7105 116.105C98.8298 116.319 98.984 116.483 99.173 116.598C99.3669 116.707 99.5708 116.762 99.7846 116.762C100.003 116.762 100.207 116.707 100.396 116.598C100.585 116.488 100.737 116.329 100.851 116.12C100.971 115.906 101.03 115.658 101.03 115.374Z" fill="black"/>
<path d="M102.722 115.359C102.722 114.947 102.806 114.581 102.975 114.263C103.149 113.945 103.383 113.698 103.676 113.524C103.975 113.345 104.303 113.256 104.661 113.256C104.984 113.256 105.265 113.321 105.504 113.45C105.747 113.574 105.941 113.731 106.086 113.92V113.323H106.943V117.433H106.086V116.821C105.941 117.015 105.745 117.177 105.496 117.306C105.248 117.435 104.964 117.5 104.646 117.5C104.293 117.5 103.97 117.411 103.676 117.232C103.383 117.048 103.149 116.794 102.975 116.471C102.806 116.143 102.722 115.772 102.722 115.359ZM106.086 115.374C106.086 115.091 106.026 114.845 105.907 114.636C105.792 114.427 105.641 114.268 105.452 114.158C105.263 114.049 105.059 113.994 104.84 113.994C104.621 113.994 104.417 114.049 104.228 114.158C104.039 114.263 103.885 114.419 103.766 114.628C103.651 114.832 103.594 115.076 103.594 115.359C103.594 115.643 103.651 115.891 103.766 116.105C103.885 116.319 104.039 116.483 104.228 116.598C104.422 116.707 104.626 116.762 104.84 116.762C105.059 116.762 105.263 116.707 105.452 116.598C105.641 116.488 105.792 116.329 105.907 116.12C106.026 115.906 106.086 115.658 106.086 115.374Z" fill="black"/>
<path d="M108.911 111.913V117.433H108.06V111.913H108.911Z" fill="black"/>
<path d="M109.744 115.359C109.744 114.947 109.828 114.581 109.997 114.263C110.171 113.945 110.405 113.698 110.698 113.524C110.997 113.345 111.325 113.256 111.683 113.256C112.006 113.256 112.287 113.321 112.526 113.45C112.77 113.574 112.964 113.731 113.108 113.92V113.323H113.966V117.433H113.108V116.821C112.964 117.015 112.767 117.177 112.518 117.306C112.27 117.435 111.986 117.5 111.668 117.5C111.315 117.5 110.992 117.411 110.698 117.232C110.405 117.048 110.171 116.794 109.997 116.471C109.828 116.143 109.744 115.772 109.744 115.359ZM113.108 115.374C113.108 115.091 113.048 114.845 112.929 114.636C112.814 114.427 112.663 114.268 112.474 114.158C112.285 114.049 112.081 113.994 111.862 113.994C111.643 113.994 111.439 114.049 111.25 114.158C111.061 114.263 110.907 114.419 110.788 114.628C110.674 114.832 110.616 115.076 110.616 115.359C110.616 115.643 110.674 115.891 110.788 116.105C110.907 116.319 111.061 116.483 111.25 116.598C111.444 116.707 111.648 116.762 111.862 116.762C112.081 116.762 112.285 116.707 112.474 116.598C112.663 116.488 112.814 116.329 112.929 116.12C113.048 115.906 113.108 115.658 113.108 115.374Z" fill="black"/>
</svg>
