<svg width="41" height="41" viewBox="0 0 41 41" fill="none" xmlns="http://www.w3.org/2000/svg">
<g clip-path="url(#clip0_59_2265)">
<path d="M19.2344 0.764164C18.3438 1.06885 17.9375 1.42041 16.7344 2.89698C15.6406 4.25635 15.3672 4.49073 14.9219 4.49073C14.8047 4.49073 14.0547 4.31104 13.25 4.09229C12.4375 3.87354 11.5313 3.67823 11.2031 3.65479C9.42971 3.52198 7.68752 4.77198 7.26564 6.49073C7.20314 6.74073 7.10939 7.67041 7.06252 8.55323C6.96877 10.311 6.90627 10.5689 6.46877 10.8579C6.33596 10.9517 5.63283 11.2407 4.90627 11.5142C3.02346 12.2251 2.55471 12.5142 1.99221 13.3189C1.49221 14.0298 1.34377 14.4907 1.29689 15.4282C1.25002 16.5923 1.39064 16.9673 2.57033 18.7798C3.42189 20.1001 3.50002 20.2485 3.50002 20.5845C3.50002 20.9204 3.42189 21.0688 2.57033 22.3892C1.39064 24.2017 1.25002 24.5767 1.29689 25.7407C1.34377 26.6704 1.44533 27.0063 1.95314 27.772C2.51564 28.6392 2.97658 28.9282 4.90627 29.6548C5.63283 29.9282 6.33596 30.2173 6.46877 30.311C6.90627 30.6001 6.96877 30.8579 7.06252 32.6157C7.10939 33.4985 7.20314 34.4282 7.26564 34.6782C7.68752 36.397 9.42971 37.647 11.2031 37.5142C11.5313 37.4907 12.4375 37.2954 13.25 37.0767C14.0547 36.8579 14.8047 36.6782 14.9219 36.6782C15.3672 36.6782 15.6406 36.9126 16.7422 38.2798C17.9531 39.772 18.3985 40.147 19.3047 40.4282C19.9922 40.6392 21.0078 40.6392 21.6953 40.4282C22.6016 40.147 23.0469 39.772 24.2578 38.2798C25.3594 36.9126 25.6328 36.6782 26.0781 36.6782C26.1953 36.6782 26.9453 36.8579 27.75 37.0767C28.5625 37.2954 29.4688 37.4907 29.7969 37.5142C31.5703 37.647 33.3125 36.397 33.7344 34.6782C33.7969 34.4282 33.8906 33.4985 33.9375 32.6235C33.9844 31.6626 34.0625 30.936 34.125 30.7798C34.2735 30.4282 34.5391 30.2485 35.3672 29.9282C35.7578 29.7798 36.461 29.5063 36.9219 29.3345C37.9375 28.9438 38.5469 28.5142 39.0078 27.8501C39.4844 27.1704 39.6641 26.6313 39.7031 25.7017C39.75 24.5845 39.6016 24.186 38.4297 22.3892C37.1953 20.4829 37.1953 20.686 38.4297 18.7798C39.6016 16.9829 39.75 16.5845 39.7031 15.4673C39.6641 14.5376 39.4844 13.9985 39.0078 13.3189C38.5469 12.6548 37.9375 12.2251 36.9219 11.8345C36.461 11.6626 35.7578 11.3892 35.3672 11.2407C34.5391 10.9204 34.2735 10.7407 34.125 10.3892C34.0625 10.2329 33.9844 9.50635 33.9375 8.54541C33.8906 7.67041 33.7969 6.74073 33.7344 6.49073C33.3125 4.77198 31.5703 3.52198 29.7969 3.65479C29.4688 3.67823 28.5625 3.87354 27.75 4.09229C26.9453 4.31104 26.1953 4.49073 26.0781 4.49073C25.6328 4.49073 25.3594 4.25635 24.2578 2.88916C23.0469 1.39698 22.6016 1.02198 21.6953 0.740726C20.9688 0.514164 19.9297 0.529789 19.2344 0.764164ZM21.0391 3.40479C21.2031 3.49854 21.711 4.04541 22.2813 4.75635C23.4063 6.15479 23.5156 6.26416 24.1328 6.63916C25.2578 7.31104 26.086 7.33448 28.2422 6.75635C29.0781 6.52979 29.8828 6.3501 30.0469 6.3501C30.4453 6.34229 30.8828 6.63135 31.0469 7.02198C31.1563 7.26416 31.2031 7.6626 31.2422 8.63135C31.2735 9.34229 31.3281 10.1626 31.3672 10.4673C31.5078 11.522 32.1875 12.5923 33.0781 13.1626C33.2813 13.2954 34.125 13.6626 34.9531 13.9751C35.9375 14.3579 36.5313 14.6314 36.6797 14.772C36.9531 15.0376 37.0938 15.436 37.0313 15.7798C37 15.9204 36.6172 16.6001 36.1719 17.2876C35.7188 17.9751 35.2813 18.6782 35.1953 18.8579C34.6719 19.8735 34.6719 21.2954 35.1953 22.311C35.2813 22.4907 35.7188 23.1938 36.1719 23.8813C36.6172 24.5688 37 25.2485 37.0313 25.3892C37.0938 25.7329 36.9531 26.1313 36.6797 26.397C36.5313 26.5376 35.9375 26.811 34.9531 27.1938C34.125 27.5063 33.2813 27.8735 33.0781 28.0063C32.1875 28.5767 31.5078 29.647 31.3672 30.7017C31.3281 30.9985 31.2735 31.8267 31.2422 32.5376C31.2031 33.5063 31.1563 33.9048 31.0469 34.147C30.8828 34.5376 30.4453 34.8267 30.0469 34.8188C29.8828 34.8188 29.1406 34.6548 28.3906 34.4517C27.6406 34.2485 26.8281 34.0532 26.5781 34.022C25.6094 33.8813 24.4219 34.2173 23.6563 34.8423C23.4766 34.9907 22.875 35.6704 22.3203 36.3579C21.2891 37.647 20.961 37.9282 20.5 37.9282C20.0391 37.9282 19.711 37.647 18.6797 36.3579C18.125 35.6704 17.5235 34.9907 17.3438 34.8423C16.5781 34.2173 15.4531 33.897 14.4453 34.022C14.1875 34.0532 13.3594 34.2485 12.6094 34.4517C11.0156 34.8813 10.7735 34.897 10.3516 34.6235C9.89846 34.3188 9.82033 34.022 9.72658 32.1392C9.62502 30.0376 9.43752 29.4438 8.59377 28.5688C8.09377 28.0454 7.67971 27.8188 6.05471 27.1938C5.07814 26.8188 4.46096 26.5298 4.32033 26.397C4.04689 26.1313 3.90627 25.7329 3.96877 25.3892C4.00002 25.2485 4.38283 24.5688 4.82814 23.8813C5.28127 23.1938 5.71877 22.4907 5.80471 22.311C6.32814 21.2954 6.32814 19.8735 5.80471 18.8579C5.71877 18.6782 5.28127 17.9751 4.82814 17.2876C4.38283 16.6001 4.00002 15.9204 3.96877 15.7798C3.90627 15.436 4.04689 15.0376 4.32033 14.772C4.46096 14.6392 5.07814 14.3501 6.05471 13.9751C6.88283 13.6548 7.72658 13.2876 7.92971 13.1548C8.81252 12.5923 9.49221 11.5142 9.63283 10.4673C9.6719 10.1626 9.72658 9.34229 9.75783 8.63135C9.7969 7.6626 9.84377 7.26416 9.95315 7.02198C10.1172 6.63135 10.5547 6.34229 10.9531 6.3501C11.1172 6.3501 11.8594 6.51416 12.6094 6.71729C13.3594 6.92041 14.1875 7.11573 14.4453 7.14698C15.4531 7.27198 16.5781 6.95166 17.3438 6.32666C17.5235 6.17823 18.125 5.49854 18.6797 4.81104C19.2266 4.12354 19.8047 3.49073 19.9531 3.40479C20.3047 3.20166 20.6797 3.20166 21.0391 3.40479Z" fill="#0BD89E"/>
<path d="M14.8281 13.561C13.9218 13.6782 13.0781 14.3266 12.7656 15.1704C12.539 15.7876 12.5624 16.7798 12.8281 17.3188C13.0703 17.8032 13.5312 18.2641 14.0312 18.5219C14.6249 18.8266 15.5156 18.8735 16.1562 18.6313C16.7187 18.4126 17.3046 17.8891 17.5937 17.3423C17.7812 16.9985 17.8046 16.8657 17.8046 16.1704C17.8046 15.4985 17.7734 15.3344 17.6093 14.9985C17.1015 13.9673 16.0234 13.4126 14.8281 13.561Z" fill="#0BD89E"/>
<path d="M25.8048 13.5532C25.6485 13.5766 25.4219 13.6782 25.2969 13.7641C25.1719 13.8579 22.2891 16.7251 18.8829 20.1313C13.0001 26.0298 12.6954 26.3423 12.6329 26.6782C12.5469 27.1079 12.6173 27.5688 12.8204 27.8423C13.0001 28.0845 13.5782 28.397 13.8594 28.397C14.4532 28.397 14.3907 28.4516 20.9844 21.8579C27.2969 15.5376 27.3673 15.4595 27.4141 15.1001C27.5626 14.1079 26.7891 13.3657 25.8048 13.5532Z" fill="#0BD89E"/>
<path d="M24.0078 23.2017C22.8281 23.5767 22.0625 24.7173 22.164 25.9438C22.2344 26.897 22.7969 27.7017 23.6875 28.1392C24.0703 28.3267 24.2265 28.3579 24.7969 28.3579C25.3672 28.3579 25.5234 28.3267 25.9062 28.1392C26.4687 27.8657 26.9219 27.4126 27.1953 26.8501C27.3828 26.4673 27.414 26.311 27.414 25.7407C27.414 24.9438 27.1875 24.3813 26.6719 23.8657C26.0156 23.2095 24.875 22.9204 24.0078 23.2017Z" fill="#0BD89E"/>
</g>
<defs>
<clipPath id="clip0_59_2265">
<rect width="40" height="40" fill="white" transform="translate(0.5 0.584473)"/>
</clipPath>
</defs>
</svg>
