<svg width="23" height="23" viewBox="0 0 23 23" fill="none" xmlns="http://www.w3.org/2000/svg">
<circle cx="11.343" cy="11.343" r="10.843" fill="white" stroke="#0BD89E"/>
<g clip-path="url(#clip0_79_1329)">
<path d="M11.165 4.45215C10.5908 4.51504 10.0439 4.78574 9.65567 5.20137C9.44512 5.42285 9.34121 5.57324 9.2209 5.82754C9.05957 6.16934 9.01582 6.36348 8.99942 6.79551C8.98574 7.13184 8.99121 7.22207 9.04317 7.44355C9.10059 7.69238 9.3002 8.15449 9.39317 8.26113C9.45059 8.32402 9.43418 8.3377 9.20176 8.40605C9.09238 8.43887 8.9502 8.48809 8.8791 8.5127L8.75606 8.56191L8.58652 8.44434C8.26387 8.22559 7.86192 8.13535 7.49551 8.19824C7.27129 8.23379 6.98418 8.35957 6.94317 8.4416C6.92403 8.47441 6.91309 8.69863 6.91309 9.02402V9.55176L6.75996 9.6748C6.32793 10.0193 5.84121 10.6564 5.60059 11.1951L5.52403 11.3646L5.17129 11.3756C4.74746 11.3893 4.62988 11.4357 4.49317 11.6545L4.41113 11.7885L4.40293 12.6006C4.39199 13.5439 4.41387 13.8119 4.51778 13.9678C4.63535 14.1482 4.76387 14.1947 5.16856 14.2139L5.51582 14.2275L5.63613 14.4736C5.85215 14.9166 6.12285 15.2885 6.51934 15.6822L6.88028 16.0432L6.89121 16.7486C6.90215 17.4049 6.90762 17.465 6.96504 17.61C7.04707 17.8178 7.25488 18.0447 7.45449 18.1432L7.61035 18.2197H8.30762H9.00488L9.17715 18.1268C9.46426 17.9709 9.6584 17.7029 9.69395 17.4131L9.71035 17.2709L9.86348 17.2873C10.6674 17.3857 11.3236 17.3775 11.9854 17.2627C12.2287 17.2189 12.2451 17.2271 12.2451 17.3775C12.2451 17.6674 12.5459 18.0584 12.8549 18.1732C12.9998 18.2279 13.0654 18.2334 13.6397 18.2334C14.2139 18.2334 14.2795 18.2279 14.4244 18.176C14.6432 18.0912 14.8947 17.8424 14.9822 17.6182C15.0424 17.4623 15.0451 17.4131 15.0561 16.6338L15.067 15.8135L15.2939 15.5783C15.9885 14.8564 16.3795 14.017 16.4561 13.0764C16.4697 12.885 16.4834 12.7072 16.4834 12.6799C16.4834 12.6334 16.5053 12.6279 16.6557 12.6279C16.8389 12.6279 16.992 12.5732 17.1506 12.4502C17.2271 12.3928 17.2545 12.3846 17.3146 12.4092C17.4158 12.4475 17.6428 12.4447 17.7768 12.4037C17.8397 12.3846 17.9436 12.3189 18.0064 12.2561C18.1104 12.1576 18.124 12.1303 18.124 12.0209C18.124 11.8486 18.0283 11.7529 17.8561 11.7529C17.7686 11.7529 17.7139 11.7693 17.6729 11.8076L17.6127 11.865L17.6264 11.6654C17.6455 11.3455 17.5553 11.1295 17.3557 11.0283C17.2572 10.9764 16.9947 10.9764 16.8963 11.0256C16.7951 11.0775 16.6529 11.2443 16.6311 11.3318C16.5955 11.4713 16.6365 11.7693 16.7076 11.8979L16.776 12.0209L16.7104 12.051C16.6119 12.0975 16.5764 12.0893 16.4697 11.9963C16.4096 11.9443 16.3631 11.8705 16.3439 11.7994C16.0021 10.4924 15.1354 9.44785 13.8693 8.82168C13.7354 8.75332 13.5521 8.67129 13.4619 8.63574C13.3717 8.6002 13.2896 8.56465 13.2787 8.55645C13.2705 8.54824 13.3197 8.46348 13.3908 8.36777C13.5576 8.14629 13.7025 7.85645 13.7928 7.5502C13.8584 7.33691 13.8666 7.26582 13.8666 6.89941C13.8666 6.4127 13.8201 6.19395 13.626 5.8002C13.1721 4.88145 12.1877 4.34004 11.165 4.45215ZM11.9881 5.09473C12.2889 5.1877 12.524 5.33535 12.7674 5.57324C13.1174 5.92051 13.3088 6.39082 13.3115 6.90215C13.3143 7.95488 12.3846 8.82715 11.3291 8.76426C10.4432 8.71231 9.72676 8.06152 9.57637 7.17285C9.4752 6.57949 9.66113 6.02441 10.1123 5.57324C10.6264 5.05918 11.3209 4.88145 11.9881 5.09473ZM8.08887 8.81621C8.1709 8.85449 8.30762 8.95293 8.39238 9.03496C8.59199 9.22363 8.63028 9.22363 9.09238 9.0459C9.28653 8.97207 9.55176 8.89004 9.68027 8.86543L9.91543 8.81895L10.033 8.90098C10.599 9.28926 11.299 9.42598 11.9717 9.27559C12.1904 9.22637 12.4119 9.14707 12.5705 9.05684C12.6361 9.02129 12.7127 8.99121 12.7428 8.99121C12.8275 8.99121 13.3033 9.17715 13.6123 9.33301C14.0799 9.56543 14.3834 9.78691 14.7498 10.1506C15.335 10.7385 15.6768 11.3646 15.8463 12.1631C15.9119 12.483 15.9119 13.1037 15.8436 13.4209C15.6522 14.3123 15.1436 15.0479 14.2275 15.7588C14.0389 15.9037 13.8721 16.0459 13.8584 16.0732C13.8037 16.1771 13.8256 16.3193 13.9104 16.4041C14.0252 16.5189 14.1646 16.5135 14.3479 16.385L14.49 16.2893L14.4818 16.8361C14.4736 17.4568 14.4654 17.4842 14.2412 17.5963C14.1291 17.6537 14.0854 17.6592 13.6424 17.6592C13.0982 17.6592 12.9971 17.6318 12.874 17.4514C12.8166 17.3639 12.8057 17.3146 12.792 17.0248C12.7783 16.7049 12.7756 16.6967 12.699 16.6283C12.6033 16.549 12.576 16.549 12.0045 16.6584C11.1459 16.8252 10.0494 16.7896 9.36856 16.5764C9.25098 16.5381 9.02402 16.4533 8.8627 16.385C8.44434 16.21 8.41153 16.2018 8.29668 16.2482C8.11621 16.3248 8.06699 16.5654 8.20645 16.6967C8.27481 16.7596 8.49082 16.8607 8.89278 17.0166L9.16074 17.1205L9.14981 17.2518C9.1416 17.3393 9.11153 17.4158 9.05957 17.4842C8.93379 17.6482 8.86543 17.6646 8.26934 17.6537C7.76895 17.6455 7.74434 17.6428 7.6541 17.5799C7.47363 17.4514 7.45996 17.383 7.45996 16.5244V15.7615L7.31778 15.6357C6.64785 15.0506 6.30059 14.5994 6.04903 13.9924C5.9041 13.6396 5.9041 13.6396 5.39278 13.6396H4.97168V12.792V11.9443H5.39278C5.89863 11.9443 5.90684 11.9389 6.03809 11.6189C6.26231 11.0584 6.63965 10.5361 7.11543 10.126C7.21934 10.0357 7.33965 9.9291 7.3834 9.88809L7.45996 9.81699V9.29746C7.45996 8.70137 7.43262 8.75332 7.74707 8.74785C7.9002 8.74512 7.96856 8.75879 8.08887 8.81621Z" fill="#0BD89E"/>
<path d="M11.2689 5.16309C11.2088 5.19863 11.1732 5.24785 11.1514 5.32441C11.124 5.43105 11.1186 5.43379 10.9736 5.4502C10.6701 5.48848 10.3529 5.69902 10.2354 5.94238C10.2025 6.01348 10.1779 6.12832 10.1725 6.26504C10.1615 6.45098 10.1697 6.49473 10.2354 6.62598C10.3639 6.89121 10.5498 7.00605 10.9682 7.07988L11.1514 7.1127V7.44082V7.76621L11.0502 7.74707C10.8506 7.71152 10.7139 7.58027 10.7139 7.42988C10.7139 7.34512 10.6646 7.27402 10.5771 7.22754C10.4514 7.16191 10.3393 7.17559 10.2463 7.26582C10.1779 7.33691 10.167 7.36699 10.167 7.50645C10.1697 7.9084 10.5334 8.2666 10.9791 8.30215L11.1514 8.31582V8.40879C11.1514 8.54824 11.2744 8.66309 11.4248 8.66309C11.5752 8.66309 11.6982 8.54824 11.6982 8.40879C11.6982 8.31582 11.701 8.31582 11.835 8.29941C12.1221 8.26387 12.4365 8.03691 12.5459 7.77988C12.6197 7.61309 12.6252 7.32598 12.5623 7.17559C12.4502 6.91035 12.2342 6.75449 11.8842 6.6916L11.6982 6.65879V6.3334C11.6982 6.00801 11.6982 6.00801 11.7611 6.02441C11.9088 6.0709 11.9854 6.13652 12.0236 6.25684C12.0838 6.44824 12.1084 6.49473 12.1795 6.53301C12.3189 6.60684 12.5131 6.55488 12.5705 6.4291C12.6607 6.22949 12.5596 5.91504 12.3354 5.70723C12.2068 5.58691 11.9553 5.46387 11.835 5.46387C11.7502 5.46387 11.6982 5.43379 11.6982 5.3791C11.6982 5.28613 11.6354 5.19316 11.5479 5.14941C11.4303 5.09473 11.3756 5.09746 11.2689 5.16309ZM11.1514 6.27324V6.53574L11.0365 6.5166C10.8752 6.48926 10.7904 6.44551 10.7439 6.36348C10.7111 6.30332 10.7111 6.28418 10.7439 6.21582C10.7877 6.12285 10.9682 6.01074 11.0775 6.01074H11.1514V6.27324ZM11.9635 7.30957C12.0428 7.36152 12.0646 7.44629 12.0264 7.54473C11.9881 7.63223 11.8459 7.7334 11.7557 7.7334C11.701 7.7334 11.6982 7.71973 11.6982 7.48457V7.23574L11.8021 7.25488C11.8568 7.26309 11.9307 7.29043 11.9635 7.30957Z" fill="#0BD89E"/>
<path d="M10.9188 9.40416C10.6016 9.42877 10.3063 9.46706 9.96993 9.52721C9.78672 9.56002 9.71563 9.58737 9.66094 9.63932C9.54883 9.75416 9.55704 9.92643 9.68008 10.0413C9.77852 10.1315 9.77579 10.1315 10.4402 10.0303C10.9352 9.95651 11.6762 9.9319 12.0945 9.97291C12.275 9.99206 12.5621 10.044 12.7316 10.0878C12.9094 10.1315 13.0707 10.1589 13.109 10.1506C13.202 10.126 13.3113 9.98659 13.3113 9.89088C13.3113 9.67487 13.1746 9.5901 12.6633 9.4862C12.1602 9.38502 11.5449 9.35495 10.9188 9.40416Z" fill="#0BD89E"/>
<path d="M7.44355 10.9163C7.28223 10.9683 7.17559 11.0585 7.08535 11.2171C7.01973 11.3347 7.00879 11.3866 7.00879 11.5644C7.00879 11.7421 7.01973 11.7858 7.08262 11.8815C7.18105 12.0319 7.31504 12.0894 7.51738 12.0757C7.73887 12.0593 7.88379 11.9581 7.99043 11.7421C8.16543 11.3921 8.05059 11.0147 7.73613 10.9081C7.62129 10.8698 7.58574 10.8726 7.44355 10.9163Z" fill="#0BD89E"/>
<path d="M14.2332 11.5644C14.1785 11.5972 14.1047 11.7284 14.1047 11.7968C14.1047 11.8241 14.1375 11.9253 14.1785 12.0237C14.2469 12.1851 14.2551 12.237 14.2551 12.5323C14.2551 12.9288 14.1895 13.1995 14.009 13.5769C13.8887 13.8229 13.6426 14.162 13.4813 14.2987C13.3172 14.4382 13.3445 14.6761 13.5305 14.7663C13.6836 14.8401 13.7875 14.7964 14.0117 14.5612C14.2387 14.3288 14.3344 14.1921 14.482 13.8968C14.8348 13.1968 14.925 12.4311 14.7281 11.8651C14.6434 11.6245 14.5531 11.5343 14.4 11.5343C14.3371 11.5343 14.2605 11.5479 14.2332 11.5644Z" fill="#0BD89E"/>
<path d="M12.461 14.8674C12.3543 14.9768 12.3489 15.1573 12.45 15.2612C12.636 15.4444 12.9285 15.3268 12.9285 15.0698C12.9285 14.8127 12.6414 14.6897 12.461 14.8674Z" fill="#0BD89E"/>
</g>
<defs>
<clipPath id="clip0_79_1329">
<rect width="14" height="14" fill="white" transform="translate(4.34277 4.34277)"/>
</clipPath>
</defs>
</svg>
