<svg width="45" height="45" viewBox="0 0 45 45" fill="none" xmlns="http://www.w3.org/2000/svg">
<path d="M19.8999 3.66888C17.4676 4.03673 15.208 4.98262 13.2186 6.46151C12.5205 6.9795 11.2443 8.20316 10.6587 8.91633C8.9546 10.9958 7.86607 13.4957 7.4682 16.2282C7.30304 17.4143 7.35559 19.6364 7.5808 20.6574C8.41409 24.4109 10.8239 28.8026 14.8552 33.8699C16.6268 36.0995 18.2183 37.8937 20.2002 39.8981L21.6641 41.377H22.077H22.4899L24.0288 39.823C29.3739 34.4104 33.8856 28.1194 35.6498 23.6077C36.4831 21.4832 36.7158 20.4172 36.7683 18.5179C36.8134 16.9414 36.7158 15.988 36.3705 14.6367C35.4396 10.9207 33.0148 7.64763 29.7267 5.64324C28.0526 4.62228 26.1758 3.95415 24.1715 3.66137C23.158 3.51123 20.8834 3.51123 19.8999 3.66888ZM23.7436 7.9329C25.2224 8.15812 26.8215 8.81874 28.1502 9.75712C28.9385 10.3202 30.1471 11.5363 30.6876 12.3321C31.5134 13.5407 32.159 15.1247 32.3917 16.521C32.5494 17.4369 32.5494 19.0734 32.3917 19.9893C32.159 21.3856 31.5134 22.9696 30.6876 24.1782C30.1471 24.974 28.9385 26.1901 28.1502 26.7532C25.4101 28.69 21.9719 29.223 18.8564 28.1945C17.28 27.669 16.0413 26.9183 14.8176 25.7322C13.2036 24.1782 12.1226 22.1438 11.7622 19.9893C11.6046 19.0734 11.6046 17.4369 11.7622 16.521C11.995 15.1247 12.6256 13.5782 13.4513 12.3471C13.9843 11.5513 15.193 10.3277 16.0037 9.75712C18.3159 8.12809 20.9134 7.5125 23.7436 7.9329Z" fill="url(#paint0_linear_57_1912)"/>
<path opacity="0.4" d="M21.5065 10.9132C21.0185 11.296 14.7201 17.0615 14.645 17.1966C14.6075 17.2792 14.5699 17.5044 14.5699 17.6921C14.5699 17.9924 14.6075 18.0824 14.8252 18.3001C15.0729 18.5479 15.0954 18.5554 15.726 18.5554H16.3716V21.6033V24.6511L16.6269 24.9064L16.8821 25.1616H18.3159H19.7498L19.99 24.9439L20.2378 24.7262L20.2753 22.7443C20.3128 20.5823 20.3278 20.5222 20.7783 20.2295C21.0786 20.0343 23.0754 20.0343 23.3757 20.2295C23.8261 20.5222 23.8412 20.5823 23.8787 22.7443L23.9162 24.7262L24.164 24.9439L24.4042 25.1616H25.838H27.2719L27.5271 24.9064L27.7824 24.6511V21.6033V18.5554H28.428C29.0586 18.5554 29.0811 18.5479 29.3288 18.3001C29.5465 18.0824 29.5841 17.9924 29.5841 17.6921C29.5841 17.5044 29.5465 17.2792 29.509 17.1966C29.4339 17.0615 23.1355 11.296 22.6475 10.9132C22.4974 10.7931 22.3322 10.748 22.077 10.748C21.8218 10.748 21.6566 10.7931 21.5065 10.9132Z" fill="url(#paint1_linear_57_1912)"/>
<defs>
<linearGradient id="paint0_linear_57_1912" x1="1.67171" y1="33.0896" x2="41.5008" y2="12.8357" gradientUnits="userSpaceOnUse">
<stop stop-color="#04CFA4"/>
<stop offset="1" stop-color="#04CFA4"/>
</linearGradient>
<linearGradient id="paint1_linear_57_1912" x1="11.6598" y1="22.0038" x2="29.1385" y2="10.0941" gradientUnits="userSpaceOnUse">
<stop stop-color="#04CFA4"/>
<stop offset="1" stop-color="#04CFA4"/>
</linearGradient>
</defs>
</svg>
