<svg width="29" height="28" viewBox="0 0 29 28" fill="none" xmlns="http://www.w3.org/2000/svg">
<path d="M21.5901 16.5797C20.8588 16.5803 20.1386 16.7588 19.4917 17.0999C18.8448 17.4409 18.2906 17.9343 17.8769 18.5373L11.5812 15.6947C12.0284 14.6149 12.0301 13.402 11.5861 12.321L17.8731 9.46376C18.4862 10.3505 19.3968 10.9881 20.4397 11.2609C21.4826 11.5338 22.5888 11.4238 23.5576 10.9509C24.5264 10.478 25.2936 9.67355 25.72 8.68346C26.1465 7.69337 26.204 6.58322 25.8821 5.55438C25.5601 4.52554 24.8801 3.64616 23.9654 3.07574C23.0506 2.50532 21.9617 2.28166 20.8962 2.44532C19.8306 2.60898 18.8591 3.14912 18.1576 3.96777C17.4562 4.78641 17.0715 5.82934 17.0732 6.90737C17.0773 7.16252 17.1031 7.41686 17.1505 7.66761L10.467 10.7047C9.82507 10.1033 9.02146 9.7025 8.15489 9.55154C7.28831 9.40058 6.39651 9.50604 5.58905 9.85496C4.78159 10.2039 4.09363 10.7811 3.6097 11.5156C3.12577 12.2501 2.86693 13.11 2.865 13.9897C2.86307 14.8693 3.11812 15.7303 3.59882 16.467C4.07952 17.2036 4.76494 17.7838 5.57086 18.1363C6.37678 18.4888 7.2681 18.5981 8.13533 18.451C9.00256 18.3038 9.80792 17.9066 10.4525 17.308L17.1534 20.3335C17.1069 20.584 17.0813 20.838 17.077 21.0928C17.0768 21.9856 17.3414 22.8585 17.8374 23.601C18.3333 24.3435 19.0383 24.9222 19.8632 25.264C20.6881 25.6058 21.5958 25.6952 22.4715 25.5211C23.3472 25.347 24.1517 24.917 24.783 24.2857C25.4144 23.6543 25.8443 22.8499 26.0185 21.9741C26.1926 21.0984 26.1031 20.1907 25.7614 19.3658C25.4196 18.5409 24.8408 17.836 24.0984 17.34C23.3559 16.8441 22.483 16.5795 21.5901 16.5797ZM21.5901 4.32777C22.1004 4.32757 22.5992 4.4787 23.0235 4.76204C23.4479 5.04537 23.7787 5.44818 23.9741 5.91953C24.1694 6.39087 24.2207 6.90957 24.1212 7.41003C24.0218 7.91049 23.7762 8.37022 23.4155 8.73108C23.0548 9.09194 22.5951 9.33772 22.0947 9.43733C21.5943 9.53695 21.0756 9.48592 20.6041 9.2907C20.1327 9.09549 19.7298 8.76485 19.4463 8.34062C19.1628 7.91638 19.0115 7.41761 19.0115 6.90737C19.012 6.22354 19.2838 5.56785 19.7673 5.08422C20.2507 4.60059 20.9063 4.32853 21.5901 4.32777ZM7.40473 16.5797C6.89449 16.5799 6.39565 16.4287 5.97131 16.1454C5.54697 15.8621 5.21619 15.4593 5.0208 14.9879C4.8254 14.5166 4.77418 13.9979 4.87361 13.4974C4.97303 12.9969 5.21864 12.5372 5.57936 12.1764C5.94009 11.8155 6.39973 11.5697 6.90015 11.4701C7.40057 11.3705 7.91929 11.4215 8.39071 11.6167C8.86212 11.8119 9.26506 12.1426 9.54855 12.5668C9.83205 12.991 9.98336 13.4898 9.98336 14.0001C9.98259 14.6838 9.7107 15.3394 9.22731 15.8229C8.74391 16.3065 8.08848 16.5786 7.40473 16.5797ZM21.5901 23.6724C21.0799 23.6724 20.5812 23.5211 20.157 23.2376C19.7328 22.9542 19.4021 22.5513 19.2069 22.0799C19.0116 21.6086 18.9606 21.0899 19.0601 20.5895C19.1596 20.0891 19.4053 19.6295 19.7661 19.2687C20.1268 18.9079 20.5865 18.6623 21.0869 18.5627C21.5873 18.4632 22.1059 18.5143 22.5773 18.7095C23.0487 18.9048 23.4515 19.2354 23.735 19.6596C24.0184 20.0838 24.1697 20.5826 24.1697 21.0928C24.1692 21.7768 23.8973 22.4326 23.4136 22.9163C22.93 23.3999 22.2741 23.6719 21.5901 23.6724Z" fill="white"/>
</svg>
