<svg width="25" height="25" viewBox="0 0 25 25" fill="none" xmlns="http://www.w3.org/2000/svg">
<path d="M12.0312 1.53227C11.8906 1.56977 11.5438 1.73853 11.2578 1.90727C9.29375 3.06509 7.17969 3.79634 4.76563 4.15259C3.83281 4.28852 3.58438 4.38227 3.24688 4.71977C3.12969 4.83228 2.97969 5.0479 2.90469 5.1979L2.77344 5.46509V8.95727C2.77344 12.3979 2.77344 12.4588 2.88125 13.012C3.32188 15.3229 4.33438 17.2542 5.94219 18.8338C6.90781 19.7854 7.35781 20.0901 9.88438 21.4917C11.7734 22.5417 12.1016 22.6917 12.5 22.6917C12.8984 22.6917 13.2266 22.5417 15.1156 21.4917C17.6141 20.1042 18.0922 19.7854 19.0109 18.8807C20.825 17.0995 21.9406 14.8166 22.2031 12.351C22.2359 12.0557 22.25 10.7104 22.2406 8.67602L22.2266 5.46509L22.0953 5.1979C22.0203 5.0479 21.8703 4.83228 21.7531 4.71977C21.4156 4.38227 21.1672 4.28852 20.2344 4.15259C17.8813 3.80571 15.9078 3.14009 13.9578 2.02446C12.9688 1.46196 12.6266 1.3729 12.0312 1.53227ZM13.0156 3.29009C15.1813 4.55103 17.9469 5.47915 20.2016 5.70415C20.3984 5.7229 20.5625 5.76978 20.6234 5.82134L20.7266 5.90102L20.7406 8.28696C20.7547 11.0479 20.7078 12.1495 20.5391 12.9791C20.2578 14.3573 19.6531 15.6792 18.7859 16.8088C18.4953 17.1932 17.75 17.9573 17.3516 18.2854C16.775 18.7542 16.3156 19.0401 14.3891 20.1088L12.5 21.1588L10.6156 20.1088C8.68438 19.0401 8.225 18.7542 7.64844 18.2854C7.25 17.9573 6.50469 17.1932 6.21406 16.8088C5.35156 15.6838 4.74219 14.3526 4.46094 12.9791C4.29219 12.1495 4.24531 11.0479 4.25938 8.29165C4.27344 6.14009 4.28281 5.90571 4.35313 5.8354C4.40469 5.78384 4.59219 5.73696 4.93906 5.69009C7.3625 5.38071 9.74844 4.56977 11.9375 3.31352C12.2328 3.14478 12.4859 3.00415 12.5 3.00415C12.5141 3.00415 12.7438 3.13071 13.0156 3.29009Z" fill="#0BD89E"/>
<path d="M6.06934 10.7211V9.80789H8.12863C8.42292 9.80789 8.72473 9.82337 8.98828 9.95433C9.53625 10.2266 9.7769 10.7099 9.83159 10.9585C10.0507 12.1712 9.43588 12.8274 9.10105 13.004L10.4708 14.3555H9.10105L8.02351 13.1866H7.03729V14.3555H6.06934V12.2552H8.22441C8.94033 12.2552 9.00973 11.6586 8.95494 11.3603C8.88189 10.8343 8.43748 10.715 8.22441 10.7211H6.06934Z" fill="#0BD89E"/>
<path d="M11.0386 9.74658L12.9331 9.80789L11.9147 11.4221L11.7066 11.0388C10.6816 12.2916 11.6957 13.1231 12.3308 13.3823L11.8052 14.1489C11.5168 14.0174 10.791 13.6515 10.4156 12.6528C10.0401 11.6541 10.7053 10.4888 11.2796 10.1956L11.0386 9.74658Z" fill="#0BD89E"/>
<path d="M13.2726 9.86704L12.7579 10.7211C13.4325 10.7211 13.7618 11.1884 13.8421 11.4221C14.2188 12.2456 13.7216 12.9416 13.4259 13.1866L13.1522 12.6376L12.1666 14.3555H14.1049L13.8421 13.9517C14.7094 13.356 14.9189 12.5725 14.9153 12.2552C14.9591 10.7402 13.8384 10.0319 13.2726 9.86704Z" fill="#0BD89E"/>
<path d="M18.9315 9.80789H15.0451V10.7211H16.5187V14.3555H17.4741V10.7211H18.9315V9.80789Z" fill="#0BD89E"/>
</svg>
