<svg width="25" height="25" viewBox="0 0 25 25" fill="none" xmlns="http://www.w3.org/2000/svg">
<path d="M11.8641 2.1939C11.7234 2.2314 11.3766 2.40015 11.0906 2.5689C9.12657 3.72671 7.01251 4.45796 4.59845 4.81421C3.66564 4.95015 3.4172 5.0439 3.0797 5.3814C2.96251 5.4939 2.81251 5.70952 2.73751 5.85952L2.60626 6.12671V9.6189C2.60626 13.0595 2.60626 13.1205 2.71407 13.6736C3.1547 15.9845 4.1672 17.9158 5.77501 19.4955C6.74064 20.447 7.19064 20.7517 9.7172 22.1533C11.6063 23.2033 11.9344 23.3533 12.3328 23.3533C12.7313 23.3533 13.0594 23.2033 14.9485 22.1533C17.4469 20.7658 17.925 20.447 18.8438 19.5423C20.6578 17.7611 21.7735 15.4783 22.0359 13.0126C22.0688 12.7173 22.0828 11.372 22.0735 9.33765L22.0594 6.12671L21.9281 5.85952C21.8531 5.70952 21.7031 5.4939 21.586 5.3814C21.2485 5.0439 21 4.95015 20.0672 4.81421C17.7141 4.46733 15.7406 3.80171 13.7906 2.68608C12.8016 2.12358 12.4594 2.03452 11.8641 2.1939ZM12.8484 3.95171C15.0141 5.21265 17.7797 6.14077 20.0344 6.36577C20.2313 6.38452 20.3953 6.4314 20.4563 6.48296L20.5594 6.56264L20.5735 8.94858C20.5875 11.7095 20.5406 12.8111 20.3719 13.6408C20.0906 15.0189 19.486 16.3408 18.6188 17.4705C18.3281 17.8548 17.5828 18.6189 17.1844 18.947C16.6078 19.4158 16.1484 19.7017 14.2219 20.7705L12.3328 21.8205L10.4485 20.7705C8.5172 19.7017 8.05783 19.4158 7.48126 18.947C7.08282 18.6189 6.33751 17.8548 6.04689 17.4705C5.18439 16.3455 4.57501 15.0142 4.29376 13.6408C4.12501 12.8111 4.07814 11.7095 4.0922 8.95327C4.10626 6.80171 4.11564 6.56733 4.18595 6.49702C4.23751 6.44546 4.42501 6.39858 4.77189 6.35171C7.19532 6.04233 9.58126 5.2314 11.7703 3.97515C12.0656 3.8064 12.3188 3.66577 12.3328 3.66577C12.3469 3.66577 12.5766 3.79233 12.8484 3.95171Z" fill="url(#paint0_linear_57_1935)"/>
<path d="M9.00886 8.31087C8.90734 8.3643 8.77376 8.47651 8.71499 8.55665C8.60278 8.70626 8.60278 8.7597 8.58675 12.6709C8.57607 17.095 8.55469 16.8706 8.94475 17.1271C9.12107 17.25 9.15847 17.25 10.5904 17.25C11.7125 17.25 12.1507 17.2286 12.4659 17.1645C13.4918 16.9561 14.4108 16.4058 15.0841 15.5936C15.4153 15.1875 15.8481 14.3326 15.971 13.825C16.5534 11.4206 15.1161 9.05357 12.6636 8.37499C12.2789 8.26812 12.0758 8.25744 10.7133 8.23606C9.32411 8.21469 9.1745 8.22538 9.00886 8.31087ZM12.2361 9.79627C13.6254 10.1489 14.6139 11.3618 14.6139 12.7136C14.6139 13.2426 14.5337 13.5953 14.2933 14.0815C14.0208 14.6372 13.5559 15.1181 13.0269 15.3959C12.3804 15.7325 12.2308 15.7539 10.3286 15.7539C9.39357 15.7539 8.6295 15.7432 8.6295 15.7325C8.6295 15.7219 9.62867 14.7227 10.8469 13.5044C12.0652 12.2915 13.0643 11.2763 13.0643 11.255C13.0643 11.1908 11.3064 11.2015 11.0874 11.2656C10.9698 11.2977 10.7507 11.4687 10.4889 11.7305L10.0722 12.1473V10.929V9.71612H10.9965C11.643 9.71612 12.0117 9.7375 12.2361 9.79627Z" fill="url(#paint1_linear_57_1935)"/>
<path d="M10.5798 14.7657C10.505 14.8351 10.4462 14.942 10.4462 15.0061C10.4462 15.145 10.676 15.3801 10.8095 15.3801C10.8683 15.3801 10.9752 15.332 11.0553 15.2679C11.2423 15.1183 11.2423 14.8939 11.0553 14.7443C10.8683 14.6 10.7401 14.6054 10.5798 14.7657Z" fill="url(#paint2_linear_57_1935)"/>
<defs>
<linearGradient id="paint0_linear_57_1935" x1="-1.16758" y1="18.7021" x2="23.2386" y2="4.0608" gradientUnits="userSpaceOnUse">
<stop stop-color="#04CFA4"/>
<stop offset="1" stop-color="#04CFA4"/>
</linearGradient>
<linearGradient id="paint1_linear_57_1935" x1="7.12524" y1="15.2731" x2="17.0058" y2="9.8884" gradientUnits="userSpaceOnUse">
<stop stop-color="#04CFA4"/>
<stop offset="1" stop-color="#04CFA4"/>
</linearGradient>
<linearGradient id="paint2_linear_57_1935" x1="10.3009" y1="15.2181" x2="11.1885" y2="14.6298" gradientUnits="userSpaceOnUse">
<stop stop-color="#04CFA4"/>
<stop offset="1" stop-color="#04CFA4"/>
</linearGradient>
</defs>
</svg>
