<svg width="18" height="19" viewBox="0 0 18 19" fill="none" xmlns="http://www.w3.org/2000/svg">
<g clip-path="url(#clip0_636_1058)">
<path d="M4.47539 2.8333C2.07422 4.03564 0.084375 5.05166 0.05625 5.09033C0.00703125 5.15361 0.00351562 5.69502 0 9.54463V13.9286L0.0808594 14.0165C0.123047 14.0657 2.08125 15.1063 4.50703 16.3755C8.23008 18.3196 8.87344 18.6431 9 18.6431C9.12656 18.6431 9.76992 18.3196 13.493 16.3755C15.9574 15.0888 17.877 14.0692 17.9227 14.0165L18 13.9286V9.54111V5.15713L17.9051 5.06572C17.8488 5.0165 15.8555 4.00049 13.4754 2.80869C9.73125 0.938379 9.11953 0.643066 8.99297 0.646582C8.86641 0.646582 8.14219 0.994629 4.47539 2.8333ZM15.1172 6.14502L13.5 6.95361L9.63281 5.02002L5.76562 3.08643L7.38984 2.2708L9.01758 1.45869L12.8742 3.3958L16.7344 5.33643L15.1172 6.14502ZM8.73633 5.44893C10.8527 6.51064 12.5859 7.38252 12.5859 7.39307C12.5859 7.40361 11.7773 7.81494 10.793 8.30713L9 9.20361L5.13281 7.27002L1.26562 5.33643L3.06562 4.43291C4.05703 3.93721 4.87266 3.5294 4.87617 3.5294C4.8832 3.52588 6.61992 4.39072 8.73633 5.44893ZM4.71094 7.93799L8.61328 9.88916V13.7563V17.62L8.09297 17.3493C7.8082 17.2017 6.04336 16.2806 4.17305 15.3032L0.773438 13.5278V9.75557C0.773438 7.68486 0.780469 5.98682 0.791016 5.98682C0.801562 5.98682 2.56641 6.86572 4.71094 7.93799ZM17.2266 9.75908V13.5278L13.8621 15.2856C12.0094 16.2524 10.248 17.1735 9.94219 17.3317L9.38672 17.6235V13.7563V9.88916L11.25 8.95752L13.1133 8.02588V9.81885C13.1133 11.3517 13.1203 11.6294 13.166 11.7173C13.2328 11.8474 13.3172 11.8931 13.5 11.8931C13.6828 11.8931 13.7672 11.8474 13.834 11.7173C13.8797 11.6294 13.8867 11.3306 13.8867 9.629V7.63916L15.532 6.8165C16.4355 6.36299 17.1844 5.99033 17.202 5.99033C17.216 5.98682 17.2266 7.68486 17.2266 9.75908Z" fill="#C3C6C9"/>
</g>
<defs>
<clipPath id="clip0_636_1058">
<rect width="18" height="18" fill="white" transform="translate(0 0.643066)"/>
</clipPath>
</defs>
</svg>
