<svg width="24" height="25" viewBox="0 0 24 25" fill="none" xmlns="http://www.w3.org/2000/svg">
<path d="M17 3.79395H7C4 3.79395 2 5.29395 2 8.79395V15.7939C2 19.2939 4 20.7939 7 20.7939H17C20 20.7939 22 19.2939 22 15.7939V8.79395C22 5.29395 20 3.79395 17 3.79395ZM17.47 9.88395L14.34 12.3839C13.68 12.9139 12.84 13.1739 12 13.1739C11.16 13.1739 10.31 12.9139 9.66 12.3839L6.53 9.88395C6.21 9.62395 6.16 9.14395 6.41 8.82395C6.67 8.50394 7.14 8.44394 7.46 8.70395L10.59 11.2039C11.35 11.8139 12.64 11.8139 13.4 11.2039L16.53 8.70395C16.85 8.44394 17.33 8.49395 17.58 8.82395C17.84 9.14395 17.79 9.62395 17.47 9.88395Z" fill="url(#paint0_linear_120_6)"/>
<defs>
<linearGradient id="paint0_linear_120_6" x1="-1.87656" y1="7.51839" x2="19.5356" y2="23.9963" gradientUnits="userSpaceOnUse">
<stop stop-color="#04CFA4"/>
<stop offset="1" stop-color="#04CFA4"/>
</linearGradient>
</defs>
</svg>
