<svg width="39" height="39" viewBox="0 0 39 39" fill="none" xmlns="http://www.w3.org/2000/svg">
<g clip-path="url(#clip0_57_247)">
<path d="M21.2745 3.31289C20.6956 3.66914 20.5545 4.09219 20.5917 5.45039C20.6139 6.40039 20.6213 6.45977 20.792 6.59336C21.0221 6.77891 21.4229 6.77891 21.6159 6.58594C21.7495 6.45234 21.7643 6.34102 21.7643 5.43555C21.7643 4.52266 21.7792 4.43359 21.9053 4.35938C22.1131 4.25547 23.4936 4.26289 23.6049 4.37422C23.6717 4.44102 23.694 4.91602 23.694 6.05898C23.694 7.16484 23.7311 7.81797 23.8053 8.1668C24.2952 10.4973 26.7815 11.9816 29.0526 11.3062C30.4553 10.8758 31.6057 9.68086 31.9694 8.25586C32.051 7.9293 32.0807 7.39492 32.0807 6.12578C32.0807 4.5375 32.0881 4.43359 32.2217 4.35938C32.4295 4.25547 33.81 4.26289 33.9213 4.37422C33.9881 4.44102 34.0104 5.11641 34.0104 6.95703C34.0104 9.71797 34.0475 10.0371 34.4706 10.6902C34.9159 11.3879 35.5987 11.8184 36.4819 11.9594C36.8901 12.0188 36.994 12.0633 37.0237 12.1895C37.046 12.2711 37.046 12.8055 37.0385 13.3695L37.0163 14.4012L32.4889 16.5832C30.0026 17.7781 27.9245 18.7504 27.8725 18.7355C27.828 18.7281 25.7647 17.7484 23.2932 16.5684L18.7956 14.416L18.8104 13.2359L18.8327 12.0484L19.3448 11.952C20.3542 11.7664 21.1112 11.2023 21.5268 10.3117C21.7049 9.94063 21.7272 9.77734 21.7495 8.99805C21.7717 8.19649 21.7643 8.09258 21.6381 7.97383C21.3858 7.75117 21.0741 7.73633 20.8366 7.94414C20.6288 8.11484 20.6213 8.1668 20.5768 8.89414C20.5249 9.72539 20.4358 9.97774 20.0795 10.3043C19.7678 10.5938 19.4561 10.7348 18.9217 10.809C18.6545 10.8461 18.3799 10.9129 18.3057 10.95C18.0831 11.0688 17.7713 11.425 17.6897 11.6551C17.6303 11.7961 17.6081 13.8297 17.6081 17.9414V24.0199L16.1905 24.866L14.7729 25.7195L14.4315 25.5637C14.1049 25.4152 13.9417 25.4004 12.1381 25.3781L10.1862 25.3559V20.6133V15.8781L12.101 15.8484C13.8674 15.8188 14.0381 15.8039 14.4315 15.648C14.9956 15.4254 15.6116 14.8613 15.8788 14.3195C16.0643 13.941 16.0866 13.8223 16.0866 13.1172C16.0866 12.2117 15.9678 11.8852 15.4186 11.2766C14.9362 10.7422 14.3944 10.4973 13.5928 10.4602L12.9471 10.4305L12.9026 9.85898C12.7838 8.49336 11.9081 7.625 10.6389 7.625H10.201L10.1713 6.93477C10.1417 6.15547 10.0081 5.84375 9.59243 5.56914C9.36236 5.40586 9.27329 5.39844 8.14517 5.39844C7.01704 5.39844 6.92798 5.40586 6.6979 5.56172C6.23033 5.88086 6.14868 6.06641 6.119 6.87539L6.08931 7.61016L5.51783 7.63984C5.07251 7.66211 4.8647 7.72149 4.55298 7.88477C3.82564 8.28555 3.46939 8.89414 3.38033 9.89609L3.33579 10.4305L2.68267 10.4602C1.91079 10.4898 1.69556 10.6234 1.69556 11.0762C1.69556 11.4918 1.91822 11.6625 2.40806 11.6254C2.62329 11.6105 5.2729 11.5957 8.29361 11.5957C13.5112 11.5957 13.8006 11.6031 14.0456 11.7367C14.6393 12.0484 14.9362 12.516 14.9362 13.1172C14.9362 13.8 14.4463 14.4234 13.7784 14.5941C13.5631 14.6461 11.7225 14.6758 8.1229 14.6758C2.10376 14.6758 2.2522 14.6906 1.76978 14.1488C1.42837 13.7777 1.35415 13.5848 1.35415 13.0949C1.35415 12.5457 1.29478 12.3824 1.04243 12.2563C0.767825 12.1152 0.433841 12.182 0.277982 12.3973C0.0998567 12.6496 0.129544 13.607 0.329935 14.134C0.545169 14.7277 1.22798 15.4031 1.83658 15.6406C2.2522 15.8039 2.40064 15.8188 4.19673 15.8484L6.10415 15.8781V20.6133V25.3559L4.15962 25.3781L2.20767 25.4004L1.72525 25.6305C1.1315 25.9125 0.649075 26.3801 0.396732 26.9219C0.226029 27.2781 0.203763 27.4266 0.203763 28.1094C0.203763 28.7699 0.226029 28.9406 0.374466 29.2375C0.834622 30.1727 1.68814 30.7219 2.73462 30.7664L3.33579 30.7961L3.38775 31.3602C3.49908 32.7406 4.39712 33.6016 5.71079 33.6016H6.10415V34.2176C6.10415 34.9152 6.27486 35.368 6.64595 35.6352C6.83892 35.7762 6.96509 35.791 8.14517 35.791C9.34009 35.791 9.45142 35.7762 9.64439 35.6352C10.0081 35.368 10.1342 35.0488 10.1713 34.366L10.2085 33.7352L10.5127 34.032C10.9506 34.4551 11.4776 34.7668 12.0788 34.9598L12.5983 35.123H23.1374C31.962 35.123 33.7284 35.1082 33.9733 35.0191C34.619 34.7965 35.1014 34.3215 35.3463 33.6758C35.4131 33.4977 35.4577 32.852 35.4799 31.5531L35.5096 29.6902L36.0069 29.6531C36.8381 29.5938 37.5358 29.1188 37.9588 28.3172L38.1295 27.998V19.7969V11.5957L37.9588 11.3508C37.7436 11.0539 37.2983 10.8164 36.9272 10.8164C36.2741 10.809 35.6506 10.4082 35.376 9.82187C35.1979 9.44336 35.1979 9.42852 35.1979 6.81602C35.1979 4.29258 35.1905 4.16641 35.042 3.86211C34.9381 3.64688 34.7823 3.47617 34.5745 3.35742C34.2702 3.1793 34.2034 3.17188 33.053 3.17188C31.7319 3.17188 31.5835 3.20898 31.242 3.61719C30.9377 3.97344 30.8932 4.28516 30.8932 6.05156C30.8932 7.52109 30.8784 7.75117 30.7374 8.15938C30.3737 9.24297 29.5053 10.0074 28.392 10.2227C26.8854 10.5195 25.2897 9.42109 24.9631 7.8625C24.9186 7.63984 24.8815 6.7418 24.8815 5.81406C24.8815 4.22578 24.8741 4.14414 24.7108 3.83242C24.5995 3.63203 24.4288 3.44648 24.2432 3.34258C23.976 3.18672 23.8573 3.17188 22.7292 3.17188C21.6604 3.17188 21.4749 3.18672 21.2745 3.31289ZM8.99868 7.10547V7.625H8.14517H7.29165V7.10547V6.58594H8.14517H8.99868V7.10547ZM11.1213 8.93125C11.4627 9.09453 11.6631 9.44336 11.7151 9.99258L11.767 10.4453H8.14517H4.52329L4.56783 10C4.61236 9.46563 4.79048 9.13906 5.13931 8.95352C5.37681 8.81992 5.60689 8.8125 8.13033 8.8125C10.4905 8.8125 10.9061 8.82734 11.1213 8.93125ZM23.3006 17.9043C25.7276 19.0695 27.7983 20.0195 27.9096 20.0195C28.0135 20.0195 30.0545 19.0844 32.4444 17.934C34.8342 16.7836 36.8381 15.8336 36.8901 15.8113C36.9643 15.7816 36.9792 16.9469 36.9643 21.7414L36.942 27.716L36.7417 27.9758C36.5264 28.2578 36.2073 28.4359 35.7768 28.5102L35.5096 28.5621L35.4799 25.9051L35.4577 23.248L35.2499 22.825C34.8936 22.1051 34.2999 21.7266 33.4389 21.6672C33.1049 21.6449 32.7635 21.6746 32.5483 21.734C32.0881 21.8602 31.6428 22.3055 31.4573 22.825C31.294 23.3 30.8042 23.9828 30.4256 24.2723C28.9784 25.3707 26.9745 25.1926 25.7944 23.8492C25.6163 23.6488 25.3565 23.2332 25.2081 22.9215C24.8815 22.2312 24.7256 22.0531 24.2506 21.8305C23.9167 21.6746 23.7756 21.6523 22.8702 21.6523C22.2319 21.6523 21.742 21.6895 21.5342 21.7563C21.3561 21.8082 20.7327 22.1422 20.1538 22.491C19.5749 22.8398 19.0331 23.1664 18.9514 23.2109L18.7956 23.2926V19.5371C18.7956 17.4738 18.8178 15.7891 18.8401 15.7891C18.8698 15.7891 20.8737 16.7391 23.3006 17.9043ZM8.99868 20.6133V25.3633H8.14517H7.29165V20.6133V15.8633H8.14517H8.99868V20.6133ZM23.7682 22.9141C23.8499 22.9586 24.0502 23.2852 24.2284 23.6414C24.8147 24.8438 25.928 25.7418 27.2565 26.0758C28.021 26.2688 29.2085 26.1945 29.9432 25.9051C31.0936 25.4523 31.9397 24.6582 32.4592 23.5375C32.6151 23.2035 32.7932 22.9141 32.86 22.8844C33.0827 22.8027 33.5651 22.8398 33.7877 22.9512C34.2702 23.2035 34.2702 23.1664 34.2924 27.1223L34.3147 30.707H30.4702H26.6256L25.6979 29.3637C25.1858 28.6289 24.7108 27.9906 24.644 27.9535C24.4213 27.8348 24.0206 27.8793 23.8795 28.0352C23.6049 28.3395 23.6866 28.5992 24.4213 29.6531C24.7999 30.1875 25.1042 30.6477 25.1042 30.6699C25.1042 30.6922 24.8444 30.707 24.5252 30.707H23.9389L22.2616 28.2949C21.3338 26.9738 20.5768 25.868 20.5768 25.8531C20.5768 25.8086 21.3042 25.3633 21.3784 25.3633C21.4155 25.3633 21.7124 25.7566 22.0463 26.2465C22.3803 26.7289 22.7069 27.1445 22.7737 27.1742C23.1819 27.3301 23.6198 27.0629 23.6198 26.6473C23.6198 26.4395 23.4936 26.2094 23.026 25.534C22.6995 25.0664 22.4323 24.6656 22.4323 24.6434C22.4323 24.6211 22.5139 24.4281 22.6178 24.2203C22.7292 23.9902 22.8256 23.634 22.8553 23.3371L22.8999 22.8398H23.2635C23.4639 22.8398 23.694 22.877 23.7682 22.9141ZM21.5713 23.6191C21.46 23.8566 21.0963 24.0941 18.3428 25.7418C15.0846 27.6863 14.9659 27.7457 14.5799 27.4711C14.4092 27.3523 14.4835 27.3078 18.0311 25.1777C21.3932 23.159 21.653 23.0105 21.6752 23.1813C21.6901 23.2777 21.6456 23.4781 21.5713 23.6191ZM20.9924 28.5918L22.4397 30.6699L21.8682 30.6922C21.3487 30.7145 21.2893 30.6996 21.178 30.5438C21.1112 30.4547 20.5174 29.6086 19.8643 28.666L18.6694 26.959L19.0479 26.7215C19.2557 26.5879 19.4487 26.4914 19.4858 26.4988C19.5155 26.5063 20.1909 27.4488 20.9924 28.5918ZM13.2663 26.6176C13.2217 26.6473 12.6577 26.9961 12.0045 27.3895C10.3866 28.3543 9.91158 28.859 9.51079 30.0168C9.31783 30.5809 9.26587 31.3898 9.39204 31.9465L9.49595 32.4141H7.45493C5.52525 32.4141 5.4065 32.4066 5.13931 32.2582C4.77564 32.0504 4.61236 31.7609 4.56783 31.2191L4.52329 30.7812H6.24517C7.86314 30.7812 7.96704 30.7738 8.10806 30.6328C8.30103 30.4398 8.30103 30.0391 8.11548 29.809L7.97447 29.6309L5.16158 29.5938C2.13345 29.5566 2.13345 29.5566 1.75493 29.1336C1.44322 28.7922 1.33931 28.4879 1.369 27.998C1.41353 27.3227 1.81431 26.818 2.43775 26.625C2.71978 26.5434 13.3553 26.5285 13.2663 26.6176ZM18.6842 29.0891C19.2557 29.9055 19.7381 30.6105 19.7456 30.6402C19.7604 30.6773 19.5081 30.707 19.1815 30.707H18.5952L17.6823 29.4008C17.185 28.6883 16.7842 28.0945 16.7991 28.0797C16.8733 28.0129 17.5784 27.5898 17.6081 27.5898C17.6303 27.5898 18.1127 28.2652 18.6842 29.0891ZM13.6002 28.2133C13.9565 28.6141 14.476 28.7996 15.1663 28.7625L15.7452 28.7402L16.4206 29.7051L17.0885 30.6699L13.8526 30.6922C12.0639 30.6996 10.5944 30.6996 10.5795 30.6773C10.5647 30.6625 10.6241 30.4621 10.7131 30.232C10.9358 29.6234 11.4627 29.1039 12.487 28.4805C12.9545 28.1984 13.3479 27.9609 13.3627 27.9609C13.3702 27.9609 13.4815 28.0723 13.6002 28.2133ZM34.2924 32.5551C34.2479 33.2898 34.1292 33.5719 33.7581 33.7945C33.5354 33.9281 33.1717 33.9355 23.4342 33.9578C16.3983 33.9727 13.1995 33.9504 12.8655 33.8984C12.3311 33.802 11.7967 33.557 11.4182 33.2305C11.1213 32.9633 10.7354 32.3918 10.6686 32.0949L10.6167 31.8945H22.4694H34.3295L34.2924 32.5551ZM8.99868 34.1211V34.6406H8.14517H7.29165V34.1211V33.6016H8.14517H8.99868V34.1211Z" fill="url(#paint0_linear_57_247)"/>
<path d="M26.5143 13.132C26.2174 13.4586 26.3881 14.0227 26.8112 14.1191L27.0338 14.1711V15.0914C27.0338 15.9227 27.019 16.0117 26.9002 16.0117C26.6182 16.0117 26.4401 16.227 26.4401 16.5609C26.4401 17.0879 26.5811 17.1621 27.6424 17.1621C28.4885 17.1621 28.5405 17.1547 28.6741 16.984C28.9561 16.6352 28.7631 16.0117 28.3698 16.0117C28.2288 16.0117 28.2213 15.9598 28.2213 14.8242C28.2213 13.184 28.1026 12.9688 27.1674 12.9688C26.7518 12.9688 26.6405 12.9984 26.5143 13.132Z" fill="#949494"/>
</g>
<defs>
<linearGradient id="paint0_linear_57_247" x1="-7.19912" y1="28.6447" x2="33.7719" y2="-2.55123" gradientUnits="userSpaceOnUse">
<stop stop-color="#04CFA4"/>
<stop offset="1" stop-color="#04CFA4"/>
</linearGradient>
<clipPath id="clip0_57_247">
<rect width="38" height="38" fill="white" transform="translate(0.166656 0.5)"/>
</clipPath>
</defs>
</svg>
