<svg width="68" height="68" viewBox="0 0 68 68" fill="none" xmlns="http://www.w3.org/2000/svg">
<g filter="url(#filter0_d_59_2183)">
<circle cx="34" cy="33.999" r="30" fill="url(#paint0_linear_59_2183)"/>
</g>
<g clip-path="url(#clip0_59_2183)">
<path d="M33.507 21.4771C33.0683 21.7088 32.9154 22.0441 32.9154 22.7589V23.2371L32.3633 23.3209C30.8301 23.5575 29.3413 24.1294 28.0596 24.9822C27.399 25.4161 27.0243 25.7266 26.4376 26.2985C24.727 27.9796 23.6424 30.124 23.3023 32.5051L23.2431 32.9143H22.76C22.2177 32.9143 21.9268 32.9932 21.7099 33.2002C21.4832 33.4172 21.3796 33.6637 21.3796 33.9989C21.3796 34.3588 21.493 34.6151 21.7494 34.8271C21.9959 35.0243 22.2226 35.0834 22.7748 35.0834H23.2431L23.3023 35.4926C23.6424 37.8737 24.727 40.0182 26.4376 41.6993C27.0243 42.2711 27.399 42.5817 28.0596 43.0155C29.3462 43.8684 30.8301 44.4403 32.383 44.6769L32.9154 44.7607V45.2389C32.9154 45.9636 33.0732 46.2939 33.5169 46.5256C33.7683 46.6537 34.2366 46.6537 34.488 46.5206C34.7247 46.4023 34.9564 46.1312 35.0303 45.8847C35.0599 45.7812 35.0846 45.4854 35.0846 45.2241V44.7558L35.4937 44.6966C36.6473 44.5339 37.6727 44.2184 38.708 43.7156C39.8221 43.1684 40.6799 42.5669 41.5624 41.6993C43.273 40.0182 44.3576 37.8737 44.6977 35.4926L44.7569 35.0834H45.2252C45.7774 35.0834 46.0041 35.0243 46.2506 34.8271C46.7387 34.4228 46.7584 33.6439 46.2901 33.2002C46.0731 32.9932 45.7823 32.9143 45.24 32.9143H44.7569L44.6977 32.5051C44.3576 30.124 43.273 27.9796 41.5624 26.2985C40.6799 25.4308 39.8221 24.8294 38.708 24.2822C37.6727 23.7793 36.6473 23.4638 35.4937 23.3012L35.0846 23.242V22.7737C35.0846 22.5124 35.0599 22.2166 35.0303 22.1131C34.9564 21.8666 34.7247 21.5954 34.488 21.4771C34.2366 21.3489 33.7486 21.3489 33.507 21.4771ZM32.9253 25.9288C32.9401 26.3724 32.9598 26.4612 33.0781 26.6633C33.2753 27.0035 33.581 27.1711 34 27.1711C34.35 27.1661 34.5324 27.0971 34.7592 26.8704C35.0008 26.6239 35.055 26.471 35.0747 25.9238L35.0944 25.4111L35.3261 25.4456C36.529 25.6231 37.9636 26.2196 39.0383 26.9788C39.5658 27.3535 40.6454 28.4331 41.0201 28.9606C41.7842 30.0402 42.3807 31.4797 42.5483 32.6728L42.5828 32.9045L42.0751 32.9242C41.6264 32.939 41.5377 32.9587 41.3356 33.077C40.9954 33.2742 40.8278 33.5798 40.8278 33.9989C40.8278 34.4179 40.9954 34.7236 41.3356 34.9208C41.5377 35.0391 41.6264 35.0588 42.0751 35.0736L42.5828 35.0933L42.5532 35.3004C42.0258 38.7069 39.4425 41.5415 36.0952 42.3796C35.7994 42.4535 35.4494 42.5324 35.3261 42.5472L35.0944 42.5817L35.0747 42.0739C35.0599 41.6253 35.0402 41.5366 34.9219 41.3345C34.7247 40.9943 34.419 40.8267 34 40.8267C33.581 40.8267 33.2753 40.9943 33.0781 41.3345C32.9598 41.5366 32.9401 41.6253 32.9253 42.0739L32.9056 42.5817L32.6739 42.5472C31.4809 42.3796 30.0413 41.7831 28.9617 41.019C28.4342 40.6443 27.3546 39.5647 26.9799 39.0372C26.2158 37.9575 25.6193 36.518 25.4517 35.325L25.4172 35.0933L25.9249 35.0736C26.4721 35.0539 26.625 34.9996 26.8715 34.7581C27.0982 34.5313 27.1673 34.3489 27.1722 33.9989C27.1722 33.5798 27.0046 33.2742 26.6644 33.077C26.4623 32.9587 26.3736 32.939 25.9249 32.9242L25.4172 32.9045L25.4517 32.6728C25.57 31.8347 25.9792 30.6565 26.4376 29.8282C27.0194 28.7683 28.0152 27.6591 29.0258 26.9394C29.9132 26.3034 31.1752 25.7562 32.2746 25.5245C32.9647 25.3815 32.9006 25.3421 32.9253 25.9288Z" fill="white"/>
<path d="M33.1373 30.9375C32.0725 31.2431 31.195 32.1354 30.9238 33.1904C30.8203 33.5897 30.8203 34.4081 30.9238 34.8074C31.2048 35.8919 32.1464 36.8286 33.2162 37.08C33.6205 37.1737 34.3796 37.1737 34.7839 37.08C35.6022 36.8878 36.4058 36.2567 36.7953 35.5025C37.0664 34.975 37.1551 34.6102 37.1551 33.9989C37.1551 33.3876 37.0664 33.0228 36.7953 32.4953C36.4107 31.7509 35.6318 31.1346 34.8085 30.9227C34.3944 30.8142 33.5317 30.8241 33.1373 30.9375ZM34.5226 33.1362C35.1783 33.5207 35.1684 34.482 34.5029 34.8715C33.6205 35.3891 32.6049 34.3834 33.1275 33.496C33.4233 32.9932 34.0148 32.8404 34.5226 33.1362Z" fill="white"/>
</g>
<defs>
<filter id="filter0_d_59_2183" x="0" y="-0.000976562" width="68" height="68" filterUnits="userSpaceOnUse" color-interpolation-filters="sRGB">
<feFlood flood-opacity="0" result="BackgroundImageFix"/>
<feColorMatrix in="SourceAlpha" type="matrix" values="0 0 0 0 0 0 0 0 0 0 0 0 0 0 0 0 0 0 127 0" result="hardAlpha"/>
<feOffset/>
<feGaussianBlur stdDeviation="2"/>
<feComposite in2="hardAlpha" operator="out"/>
<feColorMatrix type="matrix" values="0 0 0 0 0 0 0 0 0 0 0 0 0 0 0 0 0 0 0.05 0"/>
<feBlend mode="normal" in2="BackgroundImageFix" result="effect1_dropShadow_59_2183"/>
<feBlend mode="normal" in="SourceGraphic" in2="effect1_dropShadow_59_2183" result="shape"/>
</filter>
<linearGradient id="paint0_linear_59_2183" x1="-7.62968" y1="17.1441" x2="64" y2="63.999" gradientUnits="userSpaceOnUse">
<stop stop-color="#04CFA4"/>
<stop offset="1" stop-color="#04CFA4"/>
</linearGradient>
<clipPath id="clip0_59_2183">
<rect width="25.2407" height="25.2407" fill="white" transform="translate(21.3796 21.3785)"/>
</clipPath>
</defs>
</svg>
