<svg width="25" height="25" viewBox="0 0 25 25" fill="none" xmlns="http://www.w3.org/2000/svg">
<path d="M15.5 2.05103V12.051C15.5 13.151 14.6 14.051 13.5 14.051H2.5V7.67102C3.23 8.54102 4.35003 9.08103 5.59003 9.05103C6.60003 9.03103 7.51 8.64103 8.19 7.99103C8.5 7.73103 8.76002 7.40102 8.96002 7.04102C9.32002 6.43102 9.52 5.711 9.5 4.961C9.47 3.791 8.95001 2.76103 8.14001 2.05103H15.5Z" stroke="#0BD89E" stroke-width="1.5" stroke-linecap="round" stroke-linejoin="round"/>
<path d="M22.5 14.051V17.051C22.5 18.711 21.16 20.051 19.5 20.051H18.5C18.5 18.951 17.6 18.051 16.5 18.051C15.4 18.051 14.5 18.951 14.5 20.051H10.5C10.5 18.951 9.6 18.051 8.5 18.051C7.4 18.051 6.5 18.951 6.5 20.051H5.5C3.84 20.051 2.5 18.711 2.5 17.051V14.051H13.5C14.6 14.051 15.5 13.151 15.5 12.051V5.05103H17.34C18.06 5.05103 18.72 5.44104 19.08 6.06104L20.79 9.05103H19.5C18.95 9.05103 18.5 9.50103 18.5 10.051V13.051C18.5 13.601 18.95 14.051 19.5 14.051H22.5Z" stroke="#0BD89E" stroke-width="1.5" stroke-linecap="round" stroke-linejoin="round"/>
<path d="M8.5 22.051C9.60457 22.051 10.5 21.1556 10.5 20.051C10.5 18.9465 9.60457 18.051 8.5 18.051C7.39543 18.051 6.5 18.9465 6.5 20.051C6.5 21.1556 7.39543 22.051 8.5 22.051Z" stroke="#0BD89E" stroke-width="1.5" stroke-linecap="round" stroke-linejoin="round"/>
<path d="M16.5 22.051C17.6046 22.051 18.5 21.1556 18.5 20.051C18.5 18.9465 17.6046 18.051 16.5 18.051C15.3954 18.051 14.5 18.9465 14.5 20.051C14.5 21.1556 15.3954 22.051 16.5 22.051Z" stroke="#0BD89E" stroke-width="1.5" stroke-linecap="round" stroke-linejoin="round"/>
<path d="M22.5 12.051V14.051H19.5C18.95 14.051 18.5 13.601 18.5 13.051V10.051C18.5 9.50103 18.95 9.05103 19.5 9.05103H20.79L22.5 12.051Z" stroke="#0BD89E" stroke-width="1.5" stroke-linecap="round" stroke-linejoin="round"/>
<path d="M9.49993 4.96102C9.51993 5.71102 9.31995 6.43104 8.95995 7.04104C8.75995 7.40104 8.49993 7.73105 8.18993 7.99105C7.50993 8.64105 6.59995 9.03105 5.58995 9.05105C4.34995 9.08105 3.22993 8.54104 2.49993 7.67104C2.35993 7.52104 2.23993 7.35105 2.12993 7.18105C1.73993 6.59105 1.51993 5.89107 1.49993 5.14107C1.46993 3.88107 2.02992 2.73104 2.92992 1.98104C3.60992 1.42104 4.4699 1.07105 5.4099 1.05105C6.4599 1.03105 7.41994 1.41105 8.13994 2.05105C8.94994 2.76105 9.46993 3.79102 9.49993 4.96102Z" stroke="#0BD89E" stroke-width="1.5" stroke-miterlimit="10" stroke-linecap="round" stroke-linejoin="round"/>
<path d="M3.94019 5.08105L4.9502 6.04102L7.04016 4.021" stroke="#0BD89E" stroke-width="1.5" stroke-linecap="round" stroke-linejoin="round"/>
</svg>
